<?xml version="1.0" encoding="utf-8"?>
<!-- Generator: Adobe Illustrator 24.0.1, SVG Export Plug-In . SVG Version: 6.00 Build 0)  -->
<svg version="1.1" id="Layer_1" xmlns="http://www.w3.org/2000/svg" xmlns:xlink="http://www.w3.org/1999/xlink" x="0px" y="0px"
	 viewBox="0 0 826.7 574" style="enable-background:new 0 0 826.7 574;" xml:space="preserve">
<style type="text/css">
	.st0{fill:#FFFFFF;}
	.st1{fill:#E6E6E6;}
	.st2{fill:#FDAC53;}
	.st3{fill:#3F3D56;}
	.st4{fill:#FFB8B8;}
	.st5{fill:#2F2E41;}
	.st6{fill:#CCCCCC;}
	.st7{fill:#4791FF;}
</style>
<circle class="st0" cx="93.1" cy="218.6" r="4.4"/>
<circle class="st0" cx="109.6" cy="218.6" r="4.4"/>
<circle class="st0" cx="126.2" cy="218.6" r="4.4"/>
<path class="st0" d="M82.5,228.8h552.9v3.1H82.5V228.8z"/>
<path class="st1" d="M0.3,163h635.6v407.1H0.3V163z"/>
<path class="st2" d="M0,162.6h635.6v27H0V162.6z"/>
<path class="st0" d="M19,211.4h599.3v155.2H19V211.4z"/>
<path class="st0" d="M19.4,392.1h599.3v155.2H19.4V392.1z"/>
<path class="st1" d="M221.3,245.8h324.3v14.5H221.3V245.8z"/>
<path class="st1" d="M221.3,282H337v14.5H221.3V282z"/>
<path class="st1" d="M221.3,318h230.4v14.5H221.3V318z"/>
<path class="st2" d="M196.9,468.9c0,10.5-3,20.8-8.8,29.6c-1.2,1.9-2.5,3.6-4,5.3c-3.4,4-7.3,7.5-11.6,10.3
	c-1.2,0.8-2.4,1.5-3.6,2.2c-6.5,3.6-13.7,5.8-21.1,6.5c-1.7,0.2-3.4,0.2-5.1,0.2c-4.7,0-9.4-0.6-14-1.8c-2.6-0.7-5.1-1.6-7.6-2.6
	c-1.3-0.5-2.5-1.1-3.7-1.8c-2.9-1.5-5.6-3.3-8.2-5.3c-1.2-0.9-2.3-1.9-3.4-2.9c-22-20.3-23.3-54.6-2.9-76.6
	c20.3-22,54.6-23.3,76.6-2.9C190.7,439.4,196.9,453.9,196.9,468.9L196.9,468.9z"/>
<path class="st0" d="M139.4,443.6h6.6v50.6h-6.6V443.6z"/>
<path class="st0" d="M117.4,465.5H168v6.6h-50.6V465.5z"/>
<path class="st1" d="M213.2,426.4h324.3v14.5H213.2V426.4z"/>
<path class="st1" d="M213.2,462.5h115.6V477H213.2V462.5z"/>
<path class="st1" d="M213.2,498.8h230.4v14.5H213.2V498.8z"/>
<circle class="st0" cx="42" cy="176" r="4.5"/>
<circle class="st0" cx="59" cy="176" r="4.5"/>
<circle class="st0" cx="25" cy="176" r="4.5"/>
<path class="st3" d="M175.2,332.6c-4.7-2.5-9.7-4.6-14.8-6.2l-0.6-7.2l-26.4-2.8l-3.4,9.2l-9.5,3.5c-0.3,0.1-0.7,0.3-1,0.5l0,0
	c-1.1,0.7-1.8,1.8-2,3.1c-0.1,0.6-0.1,1.3,0.1,1.9l0.5,2c0.7,0.4,1.5,0.8,2.2,1.2l0.5,0.2c1.1,0.6,2.2,1.1,3.3,1.6
	c0.2,0.1,0.5,0.2,0.7,0.3l0,0c0.5,0.2,1.1,0.4,1.6,0.6c1.8,0.7,3.6,1.3,5.4,1.7c4.7,1.2,9.5,1.9,14.4,1.9c1.8,0,3.5-0.1,5.2-0.2
	c4-0.4,7.9-1.2,11.6-2.4l0,0c2.4-0.8,4.7-1.7,7-2.8l0,0c0.5-0.2,1-0.5,1.5-0.8l0.2-0.1c0.4-0.2,0.8-0.4,1.2-0.6c1-0.5,2-1.1,2.9-1.8
	c0.3-0.2,0.5-0.3,0.8-0.5c0.4-0.2,0.8-0.5,1.1-0.8C177.2,333.8,176.2,333.1,175.2,332.6L175.2,332.6z"/>
<path class="st3" d="M125.8,337l-1.6-7.5h-4.3h-0.1l0,0c-1.5,0.1-3,0.6-4.3,1.5c-0.9,0.6-1.7,1.3-2.3,2.1c1.3,1,2.6,1.9,4,2.7h0.1
	c0.4,0.2,0.8,0.5,1.2,0.7c0.7,0.4,1.5,0.8,2.2,1.2l0.5,0.2c1.1,0.6,2.2,1.1,3.3,1.6c0.2,0.1,0.5,0.2,0.7,0.3l0,0
	c0.5,0.2,1.1,0.4,1.6,0.6L125.8,337z"/>
<circle class="st4" cx="145.6" cy="292.8" r="19"/>
<path class="st5" d="M132.8,283.5c2,2.3,5.3,3,8.4,3.3c7.2,0.4,14.4-0.2,21.4-1.7c0.4,4.2-0.8,8.8,1.7,12.2c1.2-4.2,1.8-8.5,2-12.9
	c0.2-1.9-0.1-3.7-0.7-5.5c-0.7-1.8-2.4-3-4.3-3.2c1.4-1.1,3.1-1.8,4.8-2.1l-6-3l1.5-1.6l-10.9-0.7l3.2-2c-4.8-0.7-9.6-0.8-14.4-0.5
	c-2.2,0.2-4.5,0.5-6.4,1.8c-1.9,1.3-2.8,3.8-1.7,5.7c-2.8,0.5-5.3,2.4-6.4,5c-0.7,2.1-0.9,4.3-0.5,6.5c0.4,3.5,1.2,6.9,2.4,10.2
	L132.8,283.5z"/>
<path class="st3" d="M199,272.2c-10.1-29.1-41.9-44.4-70.9-34.3C99,248,83.6,279.8,93.8,308.8c2.1,5.9,5.1,11.4,9,16.3
	c0.5,0.6,1,1.3,1.6,1.9l0.1,0.1c1.3,1.5,2.7,2.9,4.1,4.3c0.4,0.4,0.8,0.7,1.2,1c0.8,0.7,1.5,1.3,2.4,2c0.3,0.2,0.6,0.5,1,0.7
	c1.3,1,2.6,1.9,4,2.7h0.1c0.4,0.2,0.8,0.5,1.2,0.7c0.7,0.4,1.5,0.8,2.2,1.2l0.5,0.2c1.1,0.6,2.2,1.1,3.3,1.6
	c0.2,0.1,0.5,0.2,0.7,0.3l0,0c0.5,0.2,1.1,0.4,1.6,0.6c1.8,0.7,3.6,1.3,5.4,1.7c4.7,1.2,9.5,1.9,14.4,1.9c1.8,0,3.5-0.1,5.2-0.2
	c4-0.4,7.9-1.2,11.6-2.4l0,0c2.4-0.8,4.7-1.7,7-2.8l0,0c0.5-0.2,1-0.5,1.5-0.8l0.2-0.1c0.4-0.2,0.8-0.4,1.2-0.6c1-0.5,2-1.1,2.9-1.8
	c0.3-0.2,0.5-0.3,0.8-0.5c0.4-0.2,0.8-0.5,1.1-0.8c0.5-0.3,1-0.7,1.5-1c0.1-0.1,0.3-0.2,0.5-0.3C199.3,320.3,206.9,295,199,272.2
	L199,272.2z M178.2,332.5c-0.3,0.3-0.7,0.5-1,0.7c-0.3,0.2-0.7,0.5-1,0.7s-0.6,0.4-0.9,0.6l-0.1,0.1c-0.2,0.1-0.4,0.3-0.7,0.4
	c-0.8,0.5-1.7,1-2.5,1.5c-0.1,0-0.2,0.1-0.3,0.1c-0.4,0.2-0.8,0.4-1.1,0.6c-0.1,0-0.1,0-0.2,0.1h-0.1c-0.5,0.2-1,0.5-1.5,0.7
	c-1.9,0.9-3.8,1.7-5.8,2.4c-0.3,0.1-0.5,0.2-0.8,0.3c-3.6,1.1-7.3,1.9-11,2.2c-1.6,0.1-3.3,0.2-5,0.2c-4.6,0-9.2-0.6-13.6-1.8
	c-2.3-0.6-4.5-1.3-6.7-2.3c-0.1,0-0.2-0.1-0.3-0.1c-0.1,0-0.2-0.1-0.3-0.1c-0.1,0-0.2-0.1-0.4-0.2c-0.9-0.4-1.9-0.9-2.8-1.3
	l-0.4-0.2c-1.1-0.6-2.2-1.2-3.3-1.9c-0.3-0.2-0.6-0.4-0.9-0.6c-0.1,0-0.1-0.1-0.2-0.1c-0.7-0.5-1.4-1-2.1-1.5
	c-0.5-0.4-0.9-0.7-1.4-1.1c-0.8-0.6-1.5-1.2-2.2-1.8c-0.4-0.3-0.8-0.7-1.1-1c-1.4-1.3-2.8-2.7-4-4.2c-0.4-0.5-0.8-1-1.2-1.5
	c-0.1-0.1-0.2-0.2-0.2-0.3c-18.1-22.8-14.2-55.9,8.6-74s55.9-14.2,74,8.6s14.2,55.9-8.6,74C178.8,332,178.5,332.2,178.2,332.5
	L178.2,332.5z"/>
<g>
	<path class="st4" d="M669.9,372.6c5.2-1.9,7.9-7.7,6-12.9c-0.2-0.6-0.5-1.1-0.7-1.6l23.4-27l-18.4-2.4l-19.4,26
		c-4.6,3.1-5.9,9.4-2.8,14C660.6,372.6,665.5,374.2,669.9,372.6L669.9,372.6z"/>
	<path class="st4" d="M801.6,378.3c3.7-4.2,3.2-10.5-0.9-14.2c-0.4-0.4-0.9-0.7-1.4-1l7.4-35l-17.3,6.8l-4.4,32.2
		c-2.6,5-0.6,11.1,4.3,13.6C793.5,382.8,798.5,381.9,801.6,378.3L801.6,378.3z"/>
	<path class="st4" d="M717.9,560.5h-12.3l-5.8-47.3h18.1V560.5z"/>
	<path class="st5" d="M721.1,572.4h-39.5v-0.5c0-8.5,6.9-15.4,15.4-15.4l0,0l0,0h24.1V572.4z"/>
	<path class="st4" d="M777.9,560.5h-12.3l-5.8-47.3h18.1V560.5z"/>
	<path class="st5" d="M781.1,572.4h-39.5v-0.5c0-8.5,6.9-15.4,15.4-15.4l0,0l0,0h24.1V572.4z"/>
	<path class="st5" d="M719.2,535.8l-17.4-0.7c-2.5-0.1-4.4-2.2-4.3-4.6l4.9-160.4l0.3-0.1c30.4-11,55.6-10.2,76.9,2.5l0.2,0.1
		l2.9,156.2c0,2.5-1.9,4.5-4.4,4.6h-0.1h-14.6c-2.1,0-4-1.5-4.4-3.6l-19.9-101.4c-0.2-0.8-0.9-1.3-1.8-1.2c-0.6,0.1-1.1,0.6-1.2,1.3
		l-12.5,103.3c-0.3,2.3-2.2,3.9-4.5,4C719.3,535.8,719.3,535.8,719.2,535.8L719.2,535.8z"/>
	<circle class="st4" cx="736.1" cy="204.9" r="24.6"/>
	<g transform="translate(-186.65948 -163.02443)">
		<path class="st3" d="M864.9,516.1c-0.9-0.3-1.6-0.9-2.1-1.7l-4.7-7.1c-1-1.6-1-3.6,0.1-5.2l19.1-26l12-57.5
			c2.9-7.5,11.3-11.2,18.8-8.2c7.5,2.9,11.2,11.3,8.2,18.8l0,0l-5.7,36.6c-1.7,11.1-7.4,21.2-16,28.4l-25.2,21.1
			c-1,0.8-2.3,1.2-3.5,1C865.6,516.3,865.2,516.2,864.9,516.1L864.9,516.1z"/>
		<path class="st3" d="M987.2,518.7c-0.9,0.3-1.8,0.4-2.7,0.1l-8.3-2.2c-1.8-0.5-3.2-2.1-3.3-4l-2.8-32.1l-29-51.1
			c-2.8-7.5,1.1-15.8,8.6-18.6c7.5-2.8,15.8,1.1,18.6,8.6l0,0l19.9,31.2c6.1,9.5,8.5,20.8,6.8,31.9l-4.9,32.5
			c-0.2,1.3-0.9,2.4-2,3.1C987.9,518.4,987.5,518.6,987.2,518.7z"/>
		<path class="st3" d="M895.9,411.5c8.5-9.4,20.9-14.4,33.5-13.6c0.4,0,0.8,0.1,1.2,0.1l0,0c12,0.9,23,7,30.2,16.6
			c7.3,9.8,10,22.2,7.5,34.1c-4.8,22.5-3.6,45.9,3.5,67.9l6.6,20.5c0.8,2.4-0.5,4.9-2.9,5.7c-0.4,0.1-0.8,0.2-1.1,0.2l-33.7,1.8
			l-8.6-14.9v15.4l-40.9,2.2c-0.1,0-0.2,0-0.2,0c-2.5,0-4.5-2-4.5-4.5c0-0.1,0-0.2,0-0.4l4.6-57.4l-5.8-39
			C883.3,433.7,887.2,420.9,895.9,411.5L895.9,411.5z"/>
		<path class="st5" d="M939.8,391.4c-2.3,1.3-11.3,2.2-11.9-0.4v-0.1c-0.4-1.9-0.1-3.8,0.1-5.7s-0.1-4-1.4-5.4
			c-2.4-2.6-6.7-1.2-10.3-1.9c-4.3-0.9-7.1-4.9-6.7-9.3c0-0.4,0.1-0.8,0.2-1.2c0.8-3.6-1.5-7.2-5.1-7.9c-0.6-0.1-1.2-0.2-1.8-0.1
			c-3.5,0.2-7.4,1.3-10.3-1.4c-2.3-2-2.8-7.3-1.8-10.2c1.7-4.8,12.4-7.4,17.1-8.8c11.7-3.4,24.4-1.3,34.4,5.6c3,2.1,5.7,4.7,7,8.1
			s0.7,7.7-2.2,9.9c4.5,4.8,6.1,11.5,4.2,17.8C949.9,385.1,943.2,389.4,939.8,391.4L939.8,391.4z"/>
		<path class="st6" d="M1012.3,737h-213c-0.6,0-1-0.4-1-1s0.4-1,1-1h213c0.6,0,1,0.4,1,1S1012.9,737,1012.3,737z"/>
	</g>
</g>
<g>
	<g id="Layer_2_1_">
		<g id="Layer_1-2">
			<rect x="103.5" y="91.7" class="st2" width="0" height="1.8"/>
			<rect x="103.5" y="91.7" class="st2" width="0" height="1.8"/>
			<path class="st7" d="M176.3,98.3c0,0.3,0,0.7,0,1.1c0,11.5-14.3,20.8-31.8,20.8h-41v-6.6h41.1c12,0,21.6-6.4,21.6-14.2V87.9
				c-6.8,3.9-14.6,5.9-22.5,5.7h-40.1v-1.8l0,0V87h41c12,0,21.6-6.4,21.6-14.3V57.5l0,0c6.2,3.8,10,9.3,10,15.1
				c-0.2,5.4-3,10.3-7.4,13.4C173,88.8,175.7,93.3,176.3,98.3z"/>
			<rect x="103.5" y="91.7" class="st7" width="0" height="1.8"/>
			<path class="st2" d="M92.3,71.6L92.3,71.6c-7.2-0.1-14.3-2-20.6-5.7v11.6c0,7.9,9.8,14.2,21.6,14.2v6.6h-1.1
				c-17-0.5-30.6-9.7-30.6-20.9c0-0.3,0-0.5,0-0.8c0.5-5.1,3.2-9.7,7.4-12.6c-4.4-3-7.1-7.9-7.4-13.2c0-6,3.9-11.4,10-15.1v15.1
				c0,7.8,9.8,14.2,21.6,14.2v6.6L92.3,71.6z"/>
			<path class="st2" d="M134.5,1.5v6.6h-41c-12,0-21.6,6.4-21.6,14.2c0,7.9,9.7,14.3,21.6,14.3v6.6h-1.2c-17-0.4-30.6-9.6-30.6-20.8
				S75.9,1.6,93.4,1.6h41.1V1.5z"/>
			<path class="st7" d="M176.4,44.2c0,11.5-14.3,20.8-31.8,20.8h-41.1v-6.6h41.1c12,0,21.6-6.4,21.6-14.2c0-7.9-9.7-14.2-21.6-14.2
				h-10v-6.6h10C162.1,23.4,176.4,32.8,176.4,44.2z"/>
		</g>
	</g>
	<g id="Layer_2_2_">
		<g id="Layer_1-2_1_">
			<path class="st2" d="M219.2,71.7h9.4v33.5c0,9.9-4.5,14.8-13.6,14.8c-9.4,0-14.1-5-14.1-15V16.9c-0.3-4.1,1-8.2,3.5-11.4
				c2.9-2.9,6.8-4.3,10.9-4c3.6-0.2,7.2,1.1,9.9,3.5c2.3,2.4,3.5,6.4,3.5,12v27h-9.4V16.1c0-3.6-1.4-5.5-4.3-5.5
				c-2.8,0-4.4,1.7-4.4,5.3v89.5c0,3.7,1.4,5.5,4.2,5.5s4.4-1.8,4.4-5.3L219.2,71.7L219.2,71.7z"/>
			<path class="st2" d="M264.7,106.6c0,9-4.5,13.5-13.5,13.4c-8.9,0-13.4-4.5-13.4-13.4v-60c0-9.1,4.5-13.6,13.4-13.6
				s13.5,4.5,13.5,13.6V106.6z M255.5,46.7c0-3.4-1.4-5.1-4.3-5.1c-3,0-4.2,1.7-4.2,5.1v60c0,3.3,1.4,4.9,4.2,4.9s4.3-1.7,4.3-4.9
				V46.7z"/>
			<path class="st2" d="M292.3,119.5V45.9c0-3-1.4-4.6-4.1-4.6c-1-0.1-2.1,0.3-2.8,1c-0.8,1-1.4,2.2-1.8,3.4v73.7h-9.4V33.6h8.9
				l0.1,5.4h0.7c1.5-3.7,5.1-6.1,9-5.9c5.9,0,8.9,3.7,8.9,11.1v75.2h-9.5V119.5z"/>
			<path class="st2" d="M328.7,59.9v-15c0-2.6-1.4-3.9-4.2-3.9c-2.8,0-4.3,1.2-4.3,3.7v16.7c-0.1,1.7,0.1,3.3,0.6,4.9
				c0.6,1.2,1.5,2.2,2.6,3c1.7,1.3,3.5,2.4,5.4,3.4c1.7,0.9,3.4,2,4.9,3.3c1.5,1.2,2.6,2.8,3.3,4.6c0.9,2.8,1.2,5.7,1.1,8.6v19.1
				c0.3,3.3-0.9,6.5-3.2,8.9c-2.9,2.2-6.5,3.2-10.1,3c-3.8,0.4-7.6-0.7-10.7-3c-2.4-2.4-3.6-5.8-3.3-9.2V92h8.9v16.1
				c0,3,1.5,4.4,4.6,4.4s4.4-1.4,4.4-4.1V89.1c0.1-1.4-0.2-2.9-0.8-4.1c-0.8-1.2-1.8-2.3-3-3.3c-1.7-1.3-3.4-2.6-5.2-3.7
				c-1.7-1.1-3.3-2.4-4.7-3.9c-1.3-1.5-2.3-3.2-3-5c-0.6-2.5-0.9-5.1-0.8-7.7V43.9c-0.2-3,1.1-6,3.4-8c2.8-2.1,6.2-3.2,9.7-3
				c3.6-0.3,7.2,0.9,9.9,3.3c2.3,2.4,3.4,5.6,3.3,8.9v14.8L328.7,59.9L328.7,59.9z"/>
			<path class="st2" d="M374,106.6c0,9-4.5,13.5-13.5,13.4c-8.9,0-13.4-4.5-13.4-13.4v-60c0-9.1,4.5-13.6,13.4-13.6
				S374,37.5,374,46.6V106.6z M364.8,46.7c0-3.4-1.4-5.1-4.3-5.1c-3,0-4.2,1.7-4.2,5.1v60c0,3.3,1.4,4.9,4.2,4.9s4.3-1.7,4.3-4.9
				V46.7z"/>
			<path class="st2" d="M383.5,119.5V0.7h9.4v118.8H383.5z"/>
			<path class="st2" d="M402.4,25.8V12.5h9.4v13.3H402.4z M402.4,119.5V33.7h9.4v85.8H402.4z"/>
			<path class="st2" d="M421.2,119.5V2.1H436c9,0,13.4,4.6,13.4,13.8V105c0,9.7-4.5,14.5-13.6,14.5H421.2z M435.3,110.7
				c3,0,4.3-2,4.3-6.2V16.6c0.2-1.6-0.3-3.1-1.2-4.4c-1.1-0.8-2.4-1.2-3.7-1.1h-3.8v99.5L435.3,110.7z"/>
			<path class="st2" d="M476.9,119.5l-0.2-4.4H476c-0.7,1.3-1.8,2.5-3,3.4c-1.7,1.2-3.8,1.7-5.9,1.5c-2.7,0.3-5.3-0.7-7.1-2.8
				c-1.4-2.2-2-4.8-1.8-7.3V84.1c-0.3-3.2,0.6-6.3,2.4-8.9c2.4-2.3,5.4-3.9,8.6-4.7c1.7-0.5,3.4-1.1,5.1-1.9c1.2-0.6,2-1.9,1.9-3.3
				V44.6c0-2.2-1.4-3.3-4.1-3.3s-4.4,1.2-4.4,3.7v16.4h-8.9V44c-0.3-3.2,1.1-6.3,3.6-8.3c3.1-1.9,6.7-2.9,10.3-2.6
				c8.5,0,12.8,3.4,12.8,10.2v76.2L476.9,119.5L476.9,119.5z M476.3,74.3c-0.6,0.6-1.4,1-2.2,1.2l-2.6,0.9c-1.3,0.3-2.5,1.1-3.3,2.2
				c-0.6,1.2-0.9,2.5-0.8,3.8v25.3c0,3,1.3,4.2,3.9,4.2c2.2,0.1,4.3-1.4,4.9-3.5V74.3H476.3z"/>
			<path class="st2" d="M513.8,119.5l-0.4-5.3h-0.7c-1,3.7-4.5,6.1-8.3,5.9c-2.7,0.1-5.3-1-7.1-3c-1.8-2.3-2.7-5.1-2.5-8V44
				c-0.2-2.9,0.8-5.8,2.6-8c1.8-2,4.5-3.1,7.2-3c3.3-0.1,6.2,1.9,7.4,4.9h0.7V0.5h9.4v118.8h-8.3V119.5z M504.5,106.8
				c0,3.4,1.4,5.1,4.1,5.1c1.1,0.1,2.2-0.4,3-1.3c0.8-1.3,1.3-2.8,1.5-4.3V47.4c-0.2-1.6-0.6-3.2-1.4-4.7c-0.7-0.9-1.8-1.4-3-1.3
				c-3,0-4.3,1.6-4.3,4.9L504.5,106.8z"/>
			<path class="st2" d="M558.6,106.6c0,9-4.5,13.5-13.5,13.4c-8.9,0-13.4-4.5-13.4-13.4v-60c0-9.1,4.5-13.6,13.4-13.6
				s13.5,4.5,13.5,13.6V106.6z M549.4,46.7c0-3.4-1.4-5.1-4.3-5.1c-2.8,0-4.2,1.7-4.2,5.1v60c0,3.3,1.4,4.9,4.2,4.9s4.3-1.7,4.3-4.9
				V46.7z"/>
			<path class="st2" d="M585.5,59.9v-15c0-2.6-1.4-3.9-4.2-3.9s-4.3,1.2-4.3,3.7v16.7c-0.1,1.7,0.1,3.3,0.6,4.9
				c0.6,1.2,1.5,2.2,2.6,3c1.7,1.3,3.5,2.4,5.4,3.4c1.7,0.9,3.4,2,4.9,3.3c1.5,1.2,2.7,2.8,3.5,4.6c0.9,2.8,1.2,5.7,1.1,8.6v19.1
				c0.3,3.3-0.9,6.5-3.2,8.9c-2.9,2.2-6.5,3.2-10.1,3c-3.8,0.4-7.6-0.7-10.7-3c-2.4-2.4-3.6-5.8-3.3-9.2V92h8.9v16.1
				c0,3,1.5,4.4,4.6,4.4s4.3-1.4,4.3-4.1V89.1c0.1-1.4-0.2-2.9-0.8-4.1c-0.8-1.2-1.8-2.3-3-3.3c-1.7-1.3-3.4-2.5-5.2-3.7
				c-1.7-1.1-3.3-2.4-4.7-3.9c-1.3-1.5-2.3-3.2-3-5c-0.6-2.5-0.9-5.1-0.8-7.7V43.9c-0.2-3,1.1-6,3.4-8c2.8-2.1,6.2-3.2,9.7-3
				c3.6-0.3,7.2,0.9,10,3.3c2.3,2.4,3.4,5.6,3.3,8.9v14.8L585.5,59.9z"/>
		</g>
	</g>
</g>
</svg>
