<?xml version="1.0" encoding="utf-8"?>
<!-- Generator: Adobe Illustrator 24.0.1, SVG Export Plug-In . SVG Version: 6.00 Build 0)  -->
<svg version="1.1" id="Layer_1" xmlns="http://www.w3.org/2000/svg" xmlns:xlink="http://www.w3.org/1999/xlink" x="0px" y="0px"
	 viewBox="0 0 476.6 346" style="enable-background:new 0 0 476.6 346;" xml:space="preserve">
<style type="text/css">
	.st0{fill:#D1CDE2;}
	.st1{fill:#302E41;}
	.st2{fill:#DFDBE5;}
	.st3{fill:none;stroke:#614FA0;stroke-width:2;stroke-miterlimit:10;}
	.st4{fill:#72451B;}
	.st5{opacity:0.8;fill:#F15A5B;enable-background:new    ;}
	.st6{opacity:0.8;fill:#FFD353;enable-background:new    ;}
	.st7{opacity:0.8;fill:#8EC851;enable-background:new    ;}
	.st8{opacity:0.8;}
	.st9{fill:none;stroke:#403E56;stroke-width:3;stroke-miterlimit:10;}
	.st10{fill:#FAAB54;}
	.st11{fill:#56BB6C;}
	.st12{fill:#F16584;}
	.st13{fill:#FFFFFF;}
	.st14{fill:#E6E6E5;}
	.st15{fill:#F9B7B8;}
	.st16{fill:#CCCCCC;}
	.st17{fill:#A0626B;}
	.st18{opacity:0.2;}
	.st19{fill:#F3F3F3;}
	.st20{fill:none;stroke:#F3F3F3;stroke-width:0.1;stroke-miterlimit:10;}
	.st21{opacity:0.3;fill:#FAAB54;enable-background:new    ;}
	.st22{fill:none;stroke:#6466AF;stroke-miterlimit:10;}
	.st23{opacity:0.2;fill:#F3F3F3;enable-background:new    ;}
	.st24{fill:#403E56;}
</style>
<title>large</title>
<g id="Layer_2_1_">
	<g id="Layer_1-2">
		<path class="st0" d="M148.6,276.9c-1.3,0-2.6,0-3.9-0.1v-1.3c1.3,0,2.6,0.1,3.9,0.1s2.6,0,3.9-0.1v1.3
			C151.2,276.9,149.9,276.9,148.6,276.9z M136.8,276.4c-2.6-0.2-5.2-0.6-7.8-1l0.2-1.3c2.6,0.4,5.1,0.7,7.7,1L136.8,276.4z
			 M160.4,276.4l-0.1-1.3c2.6-0.2,5.2-0.6,7.7-1l0.2,1.3C165.6,275.8,163,276.1,160.4,276.4L160.4,276.4z M121.2,273.9
			c-2.6-0.6-5.1-1.2-7.6-2l0.4-1.2c2.5,0.7,5,1.4,7.5,2L121.2,273.9z M175.9,273.9l-0.3-1.3c2.5-0.6,5.1-1.2,7.5-2l0.4,1.3
			C181,272.6,178.4,273.3,175.9,273.9L175.9,273.9z M106.2,269.5c-2.4-0.9-4.9-1.9-7.3-3l0.5-1.2c2.4,1,4.8,2,7.2,2.9L106.2,269.5z
			 M191,269.4l-0.4-1.2c2.4-0.9,4.8-1.9,7.2-2.9l0.5,1.2C195.9,267.5,193.4,268.5,191,269.4L191,269.4z M91.8,263.1
			c-2.3-1.2-4.6-2.5-6.9-3.9l0.7-1.1c2.2,1.3,4.5,2.6,6.8,3.8L91.8,263.1z M205.3,263l-0.6-1.1c2.3-1.2,4.6-2.5,6.8-3.8l0.7,1.1
			C209.9,260.5,207.6,261.8,205.3,263z M78.3,254.9c-2.1-1.5-4.3-3.1-6.3-4.7l0.8-1c2,1.6,4.1,3.2,6.2,4.7L78.3,254.9z M218.8,254.9
			l-0.8-1.1c2.1-1.5,4.2-3.1,6.2-4.7l0.8,1C223,251.8,220.9,253.3,218.8,254.9L218.8,254.9z M66,245.1c-1.9-1.8-3.8-3.6-5.7-5.5
			l0.9-0.9c1.8,1.9,3.7,3.7,5.6,5.4L66,245.1z M231.1,245.1l-0.9-1c1.9-1.7,3.8-3.6,5.6-5.4l0.9,0.9
			C234.9,241.4,233,243.3,231.1,245.1L231.1,245.1z M55,233.8c-1.7-2-3.3-4.1-4.9-6.1l1-0.8c1.5,2.1,3.2,4.1,4.9,6.1L55,233.8z
			 M242,233.7l-1-0.9c1.7-2,3.3-4,4.9-6.1l1,0.8C245.3,229.7,243.6,231.7,242,233.7L242,233.7z M45.6,221.2
			c-1.4-2.2-2.8-4.4-4.1-6.7l1.1-0.6c1.3,2.2,2.6,4.5,4,6.6L45.6,221.2z M251.4,221.1l-1.1-0.7c1.4-2.2,2.8-4.4,4-6.7l1.1,0.6
			C254.2,216.7,252.8,218.9,251.4,221.1L251.4,221.1z M37.9,207.5c-1.1-2.4-2.2-4.8-3.2-7.2l1.2-0.5c1,2.4,2,4.8,3.2,7.1L37.9,207.5
			z M259.2,207.4l-1.2-0.6c1.1-2.3,2.2-4.7,3.2-7.1l1.2,0.5C261.4,202.6,260.3,205.1,259.2,207.4L259.2,207.4z M32,192.9
			c-0.8-2.5-1.6-5-2.2-7.5l1.3-0.3c0.6,2.5,1.4,5,2.2,7.5L32,192.9z M265.1,192.8l-1.2-0.4c0.8-2.4,1.6-5,2.2-7.5l1.3,0.3
			C266.7,187.8,265.9,190.3,265.1,192.8L265.1,192.8z M28,177.7c-0.5-2.6-0.9-5.2-1.2-7.8l1.3-0.2c0.3,2.6,0.8,5.1,1.2,7.7L28,177.7
			z M269.1,177.6l-1.3-0.2c0.5-2.5,0.9-5.1,1.2-7.7l1.3,0.2C270,172.4,269.6,175,269.1,177.6L269.1,177.6z M26,162.1
			c-0.2-2.6-0.2-5.2-0.3-7.9H27c0,2.6,0.1,5.2,0.2,7.8L26,162.1z M271.1,162l-1.3-0.1c0.2-2.6,0.2-5.2,0.2-7.8v-0.3h1.3v0.3
			C271.3,156.8,271.2,159.4,271.1,162z M27.2,146.5l-1.3-0.1c0.2-2.6,0.4-5.2,0.7-7.8l1.3,0.2C27.6,141.3,27.4,143.9,27.2,146.5z
			 M269.7,146.1c-0.2-2.6-0.4-5.2-0.8-7.8l1.3-0.2c0.3,2.6,0.6,5.2,0.8,7.8L269.7,146.1z M29.2,131l-1.3-0.2
			c0.5-2.6,1.1-5.2,1.7-7.7l1.3,0.3C30.2,125.9,29.7,128.5,29.2,131z M267.7,130.6c-0.5-2.5-1.1-5.1-1.8-7.6l1.3-0.3
			c0.7,2.5,1.2,5.1,1.8,7.7L267.7,130.6z M33.1,116l-1.2-0.4c0.8-2.5,1.7-5,2.7-7.4l1.2,0.5C34.8,111.1,33.9,113.5,33.1,116z
			 M263.8,115.6c-0.8-2.4-1.7-4.9-2.7-7.3l1.2-0.5c1,2.4,1.9,4.9,2.7,7.4L263.8,115.6z M38.9,101.6l-1.2-0.6c1.1-2.3,2.3-4.7,3.6-7
			l1.1,0.6C41.3,96.9,40.1,99.2,38.9,101.6L38.9,101.6z M257.9,101.2c-1.1-2.3-2.3-4.6-3.6-6.9l1.1-0.7c1.3,2.3,2.5,4.6,3.7,7
			L257.9,101.2z M46.6,87.9l-1.1-0.7c1.4-2.2,2.9-4.4,4.5-6.5l1,0.8C49.5,83.6,48,85.8,46.6,87.9z M250.2,87.6
			c-1.4-2.2-2.9-4.3-4.5-6.4l1-0.8c1.6,2.1,3.1,4.3,4.5,6.4L250.2,87.6z M55.9,75.5l-1-0.8c1.7-2,3.5-4,5.3-5.8l0.9,0.9
			C59.3,71.6,57.6,73.5,55.9,75.5z M240.9,75.2c-1.7-2-3.4-3.9-5.2-5.8l0.9-0.9c1.8,1.9,3.6,3.8,5.3,5.8L240.9,75.2z M66.7,64.3
			l-0.9-1c1.9-1.8,4-3.5,6-5.1l0.8,1C70.6,60.8,68.6,62.5,66.7,64.3z M230,64c-1.9-1.7-3.9-3.4-5.9-5l0.8-1c2,1.6,4.1,3.3,6,5.1
			L230,64z M78.9,54.5l-0.8-1.1c2.1-1.5,4.3-3,6.6-4.3l0.7,1.1C83.2,51.6,81,53.1,78.9,54.5z M217.9,54.3c-2.1-1.5-4.3-2.9-6.5-4.2
			L212,49c2.2,1.3,4.5,2.8,6.6,4.3L217.9,54.3z M92.1,46.5l-0.6-1.2c2.3-1.2,4.7-2.4,7.1-3.4l0.5,1.2C96.8,44.1,94.4,45.2,92.1,46.5
			z M204.5,46.3c-2.3-1.2-4.7-2.3-7-3.4l0.5-1.2c2.4,1,4.8,2.2,7.1,3.4L204.5,46.3z M106.3,40.1l-0.4-1.2c2.4-0.9,5-1.7,7.5-2.5
			l0.4,1.2C111.2,38.4,108.8,39.2,106.3,40.1L106.3,40.1z M190.2,40c-2.4-0.9-4.9-1.7-7.4-2.4l0.4-1.2c2.5,0.7,5,1.6,7.5,2.5
			L190.2,40z M121.2,35.7l-0.2-1.3c2.5-0.6,5.1-1.1,7.7-1.5l0.2,1.3C126.3,34.6,123.8,35.1,121.2,35.7L121.2,35.7z M175.3,35.6
			c-2.5-0.6-5.1-1.1-7.6-1.5l0.2-1.3c2.6,0.4,5.2,0.9,7.7,1.5L175.3,35.6z M136.6,33.2l-0.1-1.3c2.6-0.2,5.2-0.4,7.9-0.5v1.3
			C141.8,32.8,139.1,33,136.6,33.2L136.6,33.2z M159.9,33.2c-2.6-0.2-5.2-0.4-7.8-0.5v-1.3c2.6,0.1,5.2,0.2,7.9,0.5L159.9,33.2z"/>
		<path class="st1" d="M361,88.4c-0.3-0.4-0.6-0.8-0.9-1.2s-0.8-1-1.2-1.5c-4.6-5.3-9.6-8.7-15-9.1h-0.1l-10.8,10.5l-3.7,3.6
			l0.1,0.2l2,4.9h34.7C364.5,93.3,362.8,90.8,361,88.4z"/>
		<rect x="102.4" y="102.2" class="st2" width="331.4" height="212.3"/>
		<rect x="110.1" y="164.6" class="st3" width="176.5" height="99.8"/>
		<path class="st4" d="M434,99v6.2H102.4V99c0-4.4,3.6-8,8.1-8h315.5C430.3,91,434,94.6,434,99z"/>
		<circle class="st5" cx="112" cy="98.1" r="2.9"/>
		<circle class="st6" cx="120.3" cy="98.1" r="2.9"/>
		<circle class="st7" cx="128.6" cy="98.1" r="2.9"/>
		<g class="st8">
			<line class="st9" x1="116.1" y1="139.2" x2="227.2" y2="139.2"/>
			<path class="st9" d="M126,139.2c0,0,5.3,0.7,2.6-5s7.5-4.6,7.5-4.6"/>
			<path class="st9" d="M161.4,139.2c0,0,5.3-0.7,2.6,5s7.5,4.6,7.5,4.6"/>
			<path class="st9" d="M212.3,139.2c0,0-5.3-0.7-2.6,5s-7.5,4.6-7.5,4.6"/>
			<line class="st9" x1="202.3" y1="148.8" x2="173" y2="148.8"/>
			<circle class="st10" cx="116.1" cy="139.2" r="3.2"/>
			<circle class="st11" cx="136.1" cy="129.6" r="3.2"/>
			<circle class="st10" cx="136.1" cy="139.2" r="3.2"/>
			<circle class="st10" cx="149" cy="139.2" r="3.2"/>
			<circle class="st12" cx="171.5" cy="148.7" r="3.2"/>
			<circle class="st12" cx="188.5" cy="148.7" r="3.2"/>
			<circle class="st10" cx="187.6" cy="139.2" r="3.2"/>
			<circle class="st10" cx="226.4" cy="139.2" r="3.2"/>
			<circle class="st10" cx="210.5" cy="139.2" r="3.2"/>
			<rect x="110.7" y="109.4" class="st10" width="10.9" height="7.5"/>
			<rect x="130.7" y="109.4" class="st11" width="10.9" height="7.5"/>
			<rect x="166" y="109.4" class="st12" width="10.9" height="7.5"/>
		</g>
		<path class="st4" d="M342.9,132.9h-0.5v-13.3c0-4.3-3.5-7.7-7.7-7.7h-28.2c-4.3,0-7.7,3.5-7.7,7.7l0,0v73.1c0,4.3,3.5,7.7,7.7,7.7
			h28.2c4.3,0,7.7-3.5,7.7-7.7v-50.3h0.5L342.9,132.9z"/>
		<path class="st13" d="M335,113.9h-3.7c0.6,1.4-0.1,3-1.5,3.6c0,0,0,0,0,0c-0.3,0.1-0.7,0.2-1,0.2h-16.2c-1.5,0-2.7-1.2-2.7-2.7
			c0-0.3,0.1-0.7,0.2-1h-3.4c-3.2,0-5.8,2.6-5.8,5.7c0,0,0,0,0,0v73c0,3.2,2.6,5.8,5.8,5.8l0,0H335c3.2,0,5.8-2.6,5.8-5.8l0,0l0,0
			v-73C340.8,116.5,338.2,113.9,335,113.9C335,113.9,335,113.9,335,113.9z"/>
		<path id="a2804879-ded6-4045-b20f-1f1dde9b938b" class="st14" d="M338.4,171.2h-34c-0.3,0-0.6-0.3-0.6-0.6c0,0,0,0,0,0v-8.4
			c0-0.3,0.3-0.6,0.6-0.6l0,0h34c0.3,0,0.6,0.3,0.6,0.6c0,0,0,0,0,0v8.4C339,170.9,338.8,171.2,338.4,171.2z M304.4,161.8
			c-0.2,0-0.4,0.2-0.4,0.4c0,0,0,0,0,0v8.4c0,0.2,0.2,0.4,0.4,0.4c0,0,0,0,0,0h34c0.2,0,0.4-0.2,0.4-0.4v-8.4c0-0.2-0.2-0.4-0.4-0.4
			H304.4z"/>
		<circle id="b9ad11c9-d8a0-4df6-8741-900b9ec46a35" class="st14" cx="308.8" cy="166.4" r="2.6"/>
		<path id="bd261eec-7ae0-49b0-bf26-57ff03972605" class="st14" d="M314.9,164.6c-0.2,0-0.4,0.2-0.4,0.4l0,0c0,0.2,0.2,0.4,0.4,0.4
			h20.8c0.2,0,0.4-0.2,0.5-0.4c0-0.2-0.2-0.4-0.4-0.4l0,0H314.9z"/>
		<path id="e80b4447-8c34-435b-ba6c-5300a190ab24" class="st14" d="M314.9,167.2c-0.2,0-0.4,0.2-0.4,0.4s0.2,0.4,0.4,0.4h20.8
			c0.2,0,0.4-0.2,0.4-0.4s-0.2-0.4-0.4-0.4H314.9z"/>
		<path id="e55fcb7d-3a3b-45d8-b167-72fb2263dd92" class="st14" d="M338.4,185.3h-34c-0.3,0-0.6-0.3-0.6-0.6c0,0,0,0,0,0v-8.4
			c0-0.3,0.3-0.6,0.6-0.6l0,0h34c0.3,0,0.6,0.3,0.6,0.6c0,0,0,0,0,0v8.4C339,185,338.8,185.3,338.4,185.3L338.4,185.3z M304.4,175.9
			c-0.2,0-0.4,0.2-0.4,0.4c0,0,0,0,0,0v8.4c0,0.2,0.2,0.4,0.4,0.4l0,0h34c0.2,0,0.4-0.2,0.4-0.4v-8.4c0-0.2-0.2-0.4-0.4-0.4H304.4z"
			/>
		<circle id="a50d232f-7710-43e4-8fa9-6ef0443fc454" class="st14" cx="308.8" cy="180.5" r="2.6"/>
		<path id="e49b4965-a9e9-4371-9134-194e44e65c31" class="st14" d="M314.9,178.7c-0.2,0-0.4,0.2-0.4,0.4c0,0.2,0.2,0.4,0.4,0.4h20.8
			c0.2,0,0.4-0.2,0.5-0.4c0,0,0,0,0,0c0-0.2-0.2-0.4-0.4-0.4H314.9z"/>
		<path id="abc4586a-ac92-4255-aae6-84f53baad571" class="st14" d="M314.9,181.4c-0.2,0-0.4,0.2-0.4,0.4l0,0c0,0.2,0.2,0.4,0.4,0.4
			h20.8c0.2,0,0.4-0.2,0.5-0.4c0-0.2-0.2-0.4-0.4-0.4l0,0H314.9z"/>
		<polygon class="st10" points="309.9,146.1 309.7,146 314.3,141.4 317.3,144.4 323.2,138.5 325.2,140.4 330.5,135.1 330.7,135.3 
			325.2,140.8 323.2,138.8 317.3,144.8 314.3,141.8 		"/>
		<path id="a9e593af-a319-4e97-9065-f0c2c04624d5" class="st14" d="M320.7,153.7c-6.6,0-12-5.4-12-12l0,0v-0.1c0-6.6,5.4-12,12-12
			s12,5.4,12,12S327.3,153.6,320.7,153.7L320.7,153.7z M320.7,130c-6.4,0-11.6,5.2-11.7,11.6c0,0,0,0,0,0.1
			c0,6.5,5.3,11.7,11.8,11.7s11.7-5.3,11.7-11.8C332.4,135.2,327.2,130,320.7,130L320.7,130z"/>
		<path class="st1" d="M330.2,46.3c2.7,5.8-3.1,7.5-9.7,10.6s-11.6,6.5-14.3,0.7s-5-17.4,4.4-21.8C320.4,31.2,327.5,40.4,330.2,46.3
			z"/>
		<circle class="st15" cx="316.7" cy="48.8" r="8.9"/>
		<path class="st1" d="M307,52.4L307,52.4l3.2-1.5l-0.5-4.6l2.1,3.8l1.5-0.7l-0.3-2.7l1.2,2.2l11.4-5.3l0,0
			c-2.2-4.7-7.8-6.8-12.6-4.6c0,0,0,0,0,0l-1.6,0.8C306.8,42,304.8,47.6,307,52.4C307,52.4,307,52.4,307,52.4z"/>
		<path class="st15" d="M366.3,82.5c-0.6-0.9-1.5-1.6-2.6-1.8c-0.2,0-0.4-0.1-0.6-0.1l-27.7-24.8c-0.5-0.6-1.3-0.9-2-1
			c-0.2,0-0.3,0-0.5,0c-1.8,0.1-3.2,1.6-3.1,3.4c0,0,0,0,0,0c0,0.8,0.4,1.6,1,2.2l10.6,9.3l17.4,15.2c0,0.3,0.1,0.6,0.1,0.8
			c0.4,1.6,1.8,2.8,3.5,3c1.4,0.2,2.7-0.3,3.6-1.4l0.1-0.1C367.2,85.9,367.3,84,366.3,82.5L366.3,82.5z"/>
		<path class="st15" d="M318.9,106.4l-0.3-10.5l-0.2-8.7l-0.1-6.1L318,69.2c-0.2-1.8-1.8-3.1-3.6-3c-1.8,0.2-3.1,1.8-3,3.6l0.5,17.3
			l0.3,8.7l0.4,11.1c-0.1,0.2-0.2,0.3-0.3,0.5c-1.1,2-0.3,4.5,1.7,5.6c1,0.5,2.2,0.6,3.3,0.2c0.2,0,0.3-0.1,0.5-0.2
			c2.1-0.9,3-3.4,2-5.4c0,0,0,0,0,0C319.6,107.2,319.3,106.8,318.9,106.4L318.9,106.4z"/>
		<path class="st16" d="M343.8,76.7l-2.6-7l-4.2-11.3c-0.6-1.7-1.9-3-3.6-3.5c-0.1,0-0.1,0-0.2-0.1c-1.6-0.5-3.4-0.3-4.8,0.7
			l-14,8.9c-2.7,1.7-3.5,5.2-1.9,7.9c1.8,3,3.7,6,5.7,8.8c1.6,2.2,4.7,2.5,5.2,6.1h10.3l10.5-9.4L343.8,76.7z"/>
		<rect x="298.4" y="217" class="st14" width="120.2" height="77"/>
		<rect x="301.8" y="226.7" class="st13" width="113.4" height="29.4"/>
		<rect x="330" y="230.9" class="st14" width="24" height="1.4"/>
		<rect x="330" y="235.9" class="st10" width="37" height="1.4"/>
		<rect x="330" y="240.7" class="st14" width="30.2" height="1.4"/>
		<rect x="330" y="245.4" class="st14" width="17.6" height="1.4"/>
		<rect x="330" y="250.1" class="st14" width="26.6" height="1.4"/>
		<rect x="319.1" y="230.4" class="st14" width="2.9" height="2.9"/>
		<rect x="319.1" y="235.2" class="st10" width="2.9" height="2.9"/>
		<rect x="319.1" y="239.9" class="st14" width="2.9" height="2.9"/>
		<rect x="319.1" y="244.6" class="st14" width="2.9" height="2.9"/>
		<rect x="319.1" y="249.4" class="st14" width="2.9" height="2.9"/>
		<rect x="389.5" y="237.1" class="st14" width="9.8" height="9.8"/>
		<rect x="301.8" y="260.1" class="st13" width="113.4" height="29.4"/>
		<rect x="324.1" y="262.7" class="st14" width="2.9" height="2.9"/>
		<rect x="319.1" y="262.7" class="st10" width="2.9" height="2.9"/>
		<path class="st14" d="M368.9,269.1c-3.1-5.3-9.9-7-15.2-3.9c-1,0.6-1.9,1.4-2.7,2.3l-0.7-0.6c4.4-5,12-5.5,17-1.2
			c1,0.9,1.8,1.9,2.5,3L368.9,269.1z"/>
		<path class="st10" d="M369.3,281.5l-0.8-0.5c2.4-3.6,2.5-8.2,0.3-11.9l0.8-0.5C372,272.7,371.9,277.7,369.3,281.5L369.3,281.5z"/>
		<path class="st10" d="M350.3,282.8c-4.1-4.5-4.1-11.4-0.1-16l0.7,0.6c-3.7,4.2-3.6,10.5,0.1,14.7L350.3,282.8z"/>
		<path class="st10" d="M359.3,286.9c-3.4,0-6.7-1.4-9-4l0.7-0.6c4.1,4.6,11.1,5,15.7,0.9c0.7-0.6,1.3-1.3,1.8-2.1l0.8,0.5
			C367,284.9,363.3,286.9,359.3,286.9z"/>
		<rect x="389.5" y="269.1" class="st14" width="9.8" height="9.8"/>
		<rect x="318.7" y="275.4" class="st14" width="9.8" height="9.8"/>
		<path class="st4" d="M418.6,216.7v2.2H298.4v-2.2c0-1.6,1.3-2.9,2.9-2.9l0,0h114.4C417.3,213.7,418.6,215,418.6,216.7L418.6,216.7
			z"/>
		<circle class="st5" cx="301.9" cy="216.3" r="1"/>
		<circle class="st6" cx="304.9" cy="216.3" r="1"/>
		<circle class="st7" cx="307.9" cy="216.3" r="1"/>
		<path class="st15" d="M412.6,218.6c0.4,2,2.3,3.3,4.3,2.9c0.2,0,0.4-0.1,0.6-0.2l8.3,10l2-6.5l-8.2-8.5c-0.7-1.9-2.9-2.8-4.8-2.1
			C413.1,215,412.2,216.8,412.6,218.6L412.6,218.6z"/>
		<path class="st1" d="M464.1,346l-4.1-1.3c-0.6-0.2-1.1-0.7-1.1-1.4l-3.9-36.5c0-0.1-0.1-0.2-0.2-0.2c-0.1,0-0.2,0-0.2,0.1
			c0,0,0,0,0,0l-6.5,35.4c-0.2,0.9-1,1.5-1.9,1.3c0,0,0,0,0,0l0,0l-5.3-1.1c-0.8-0.2-1.4-0.9-1.3-1.7l3.9-58l26.6-2.9l-4,64.7
			c-0.1,0.9-0.8,1.5-1.6,1.5C464.4,346,464.3,346,464.1,346z"/>
		<circle class="st15" cx="464.1" cy="223.3" r="8.9"/>
		<path class="st10" d="M443.5,283l5.8-36.3c1.2-7.5,8.2-12.6,15.7-11.4c0.6,0.1,1.1,0.2,1.7,0.4l0,0c6.8,2,11,8.8,9.7,15.8l-6,32.5
			L443.5,283z"/>
		<path class="st15" d="M466.5,289.5c1.7-1.1,2.1-3.4,1-5.1c-0.1-0.2-0.3-0.3-0.4-0.5l6-11.6l-6.7,0.7l-4.6,10.9
			c-1.4,1.5-1.3,3.8,0.2,5.2C463.3,290.3,465.1,290.5,466.5,289.5L466.5,289.5z"/>
		<path class="st10" d="M419.1,222.5c0.2-0.3,0.4-0.5,0.7-0.6l2.8-1.3c0.6-0.3,1.4-0.1,1.9,0.4l8.2,8.4l19.9,7.7
			c2.5,1.5,3.3,4.7,1.9,7.2c-1.5,2.5-4.7,3.3-7.2,1.9l0,0l0,0l-12.8-4.2c-3.9-1.3-7.2-3.9-9.3-7.4l-6.1-10.3
			c-0.2-0.4-0.3-0.9-0.1-1.3C419,222.8,419.1,222.7,419.1,222.5z"/>
		<path class="st1" d="M463,225c-1.2,0.2-2.3-0.6-2.6-1.7c-0.3-1.3-1.3-2.3-2.5-2.6c-1.6-0.4-3.6,0.4-4.8-0.8
			c-0.5-0.6-0.7-1.4-0.6-2.1c0.3-1.2,1-2.2,2-2.9c2-1.5,4.4-2.4,6.9-2.6c1.3,0,2.6,0,3.9,0.2c1.3,0.1,2.7,0.3,4,0.7
			c3,1.1,5.2,3.7,5.8,6.8c0.6,3.1-0.2,6.3-2.2,8.8c-1.2,1.5-2.7,2.6-4.4,3.4c-0.4,0.2-0.9,0.2-1.3,0.1c-1.1-0.4-0.9-1.8-0.4-2.6
			s1.3-1.9,0.9-3c-0.2-0.5-0.6-1-1.1-1.2C465.4,224.9,464.2,224.8,463,225L463,225z"/>
		<path class="st10" d="M416,152h-23.5c-2.9,0-5.2-2.3-5.2-5.2l0,0v-23.5c0-2.9,2.3-5.2,5.2-5.2c0,0,0,0,0,0H416
			c2.9,0,5.2,2.3,5.2,5.2v23.5C421.2,149.7,418.9,152,416,152C416,152,416,152,416,152z M392.5,119.2c-2.3,0-4.1,1.8-4.1,4.1v23.5
			c0,2.3,1.8,4.1,4.1,4.1H416c2.3,0,4.1-1.8,4.1-4.1v-23.5c0-2.3-1.8-4.1-4.1-4.1L392.5,119.2z"/>
		<path class="st10" d="M411.4,145.4h-14.2c-0.9,0-1.6-0.7-1.6-1.6c0,0,0,0,0,0v-17.5c0-0.9,0.7-1.6,1.6-1.6c0,0,0,0,0,0h10.3
			c0.4,0,0.7,0.1,1,0.4l3.9,3.1c0.4,0.3,0.6,0.8,0.6,1.3v14.3C413,144.7,412.2,145.4,411.4,145.4z M397.2,125.8
			c-0.3,0-0.5,0.2-0.5,0.5c0,0,0,0,0,0v17.5c0,0.3,0.2,0.6,0.5,0.6h14.2c0.3,0,0.5-0.3,0.5-0.6v-14.3c0-0.2-0.1-0.3-0.2-0.4
			l-3.9-3.1c-0.1-0.1-0.2-0.1-0.3-0.1H397.2z"/>
		<path class="st10" d="M408.6,132.3h-8.7c-0.3,0-0.6-0.2-0.6-0.5c0-0.3,0.2-0.6,0.5-0.6c0,0,0.1,0,0.1,0h8.7c0.3,0,0.5,0.3,0.5,0.6
			C409.1,132.1,408.9,132.3,408.6,132.3z"/>
		<path class="st10" d="M408.6,135.6h-8.7c-0.3,0-0.6-0.2-0.6-0.6s0.2-0.6,0.6-0.6h8.7c0.3,0,0.5,0.2,0.5,0.6
			S408.9,135.6,408.6,135.6z"/>
		<path class="st10" d="M408.6,138.9h-8.7c-0.3,0-0.6-0.2-0.6-0.5c0-0.3,0.2-0.6,0.5-0.6c0,0,0.1,0,0.1,0h8.7c0.3,0,0.5,0.3,0.5,0.6
			C409.1,138.7,408.9,138.9,408.6,138.9z"/>
		<path class="st10" d="M378.2,189.3h-23.5c-2.9,0-5.2-2.3-5.2-5.2c0,0,0,0,0,0v-23.5c0-2.9,2.3-5.2,5.2-5.2h23.5
			c2.9,0,5.2,2.3,5.2,5.2v23.5C383.4,187,381.1,189.3,378.2,189.3L378.2,189.3z M354.7,156.5c-2.3,0-4.1,1.8-4.1,4.1v23.5
			c0,2.3,1.8,4.1,4.1,4.1h23.5c2.3,0,4.1-1.8,4.1-4.1v-23.5c0-2.3-1.8-4.1-4.1-4.1H354.7z"/>
		<path class="st10" d="M374.1,178.4h-15.3c-0.9,0-1.6-0.7-1.6-1.6V168c0-0.9,0.7-1.6,1.6-1.6l0,0h15.3c0.9,0,1.6,0.7,1.6,1.6
			c0,0,0,0,0,0v8.7C375.7,177.6,375,178.4,374.1,178.4z M358.8,167.4c-0.3,0-0.5,0.2-0.5,0.6v8.7c0,0.3,0.2,0.6,0.5,0.6h15.3
			c0.3,0,0.5-0.2,0.5-0.6V168c0-0.3-0.2-0.6-0.5-0.6L358.8,167.4z"/>
		<path class="st10" d="M366.5,173.8c-0.3,0-0.6-0.1-0.9-0.2l-8.1-5.1c-0.3-0.2-0.3-0.5-0.2-0.7c0,0,0,0,0,0
			c0.2-0.3,0.5-0.3,0.8-0.2l8.1,5.1c0.2,0.1,0.4,0.1,0.6,0l8.1-5.1c0.3-0.2,0.6-0.1,0.8,0.2c0.2,0.3,0.1,0.6-0.2,0.7c0,0,0,0,0,0
			l-8.1,5.1C367.1,173.7,366.8,173.8,366.5,173.8z"/>
		<path class="st10" d="M378.2,152h-23.5c-2.9,0-5.2-2.3-5.2-5.2l0,0v-23.5c0-2.9,2.3-5.2,5.2-5.2c0,0,0,0,0,0h23.5
			c2.9,0,5.2,2.3,5.2,5.2v23.5C383.4,149.7,381.1,152,378.2,152C378.2,152,378.2,152,378.2,152z M354.7,119.2
			c-2.3,0-4.1,1.8-4.1,4.1v23.5c0,2.3,1.8,4.1,4.1,4.1h23.5c2.3,0,4.1-1.8,4.1-4.1v-23.5c0-2.3-1.8-4.1-4.1-4.1L354.7,119.2z"/>
		<path class="st10" d="M374.1,141.1h-15.3c-0.9,0-1.6-0.7-1.6-1.6v-8.7c0-0.9,0.7-1.6,1.6-1.6h15.3c0.9,0,1.6,0.7,1.6,1.6
			c0,0,0,0,0,0v8.7C375.7,140.3,375,141.1,374.1,141.1C374.1,141.1,374.1,141.1,374.1,141.1z M358.8,130.2c-0.3,0-0.5,0.2-0.5,0.5
			v8.7c0,0.3,0.3,0.5,0.5,0.5h15.3c0.3,0,0.5-0.2,0.5-0.5v-8.7c0-0.3-0.3-0.5-0.5-0.5H358.8z"/>
		<path class="st10" d="M371.7,141.1h-11c-0.6,0-1.1-0.5-1.1-1.1c0,0,0,0,0,0c0-0.2,0-0.4,0.1-0.5l3.3-5.7c0.3-0.5,1-0.7,1.5-0.4
			c0,0,0,0,0,0c0.2,0.1,0.3,0.2,0.4,0.4l2.1,3.7l1.2-2.1c0.3-0.5,1-0.7,1.5-0.4c0,0,0,0,0,0c0.2,0.1,0.3,0.2,0.4,0.4l2.4,4.2
			c0.3,0.5,0.1,1.2-0.4,1.5c0,0,0,0,0,0C372,141,371.8,141.1,371.7,141.1L371.7,141.1z M371.7,140L371.7,140l-2.4-4.2l-1.7,3
			c-0.1,0.2-0.3,0.3-0.5,0.3l0,0c-0.2,0-0.4-0.1-0.5-0.3l-2.6-4.6l-3.3,5.7L371.7,140z"/>
		<circle class="st10" cx="372.5" cy="132.3" r="1.1"/>
		<circle class="st10" cx="143.3" cy="31.5" r="31.5"/>
		<path class="st13" d="M156.8,29h-11c-2.1,0-3.8-1.7-3.8-3.7c0,0,0,0,0,0v-11c0-0.2-0.1-0.3-0.3-0.3h-7.2c-2.8,0-5,2.2-5,5
			c0,0,0,0,0,0V44c0,2.8,2.2,5,5,5h17.6c2.8,0,5-2.2,5-5l0,0V29.3C157.1,29.1,157,29,156.8,29C156.8,29,156.8,29,156.8,29L156.8,29z
			 M149.6,41.6h-12.6c-0.7-0.1-1.2-0.7-1.1-1.4c0.1-0.6,0.5-1.1,1.1-1.1h12.6c0.7,0.1,1.2,0.7,1.1,1.4
			C150.7,41,150.2,41.5,149.6,41.6z M149.6,35.3h-12.6c-0.7-0.1-1.2-0.7-1.1-1.4c0.1-0.6,0.5-1.1,1.1-1.1h12.6
			c0.7,0.1,1.2,0.7,1.1,1.4C150.7,34.7,150.2,35.2,149.6,35.3z"/>
		<path class="st13" d="M156.1,26.2l-11.3-11.3c-0.1-0.1-0.2-0.1-0.2,0c0,0,0,0.1,0,0.1v10.2c0,0.7,0.6,1.3,1.3,1.2H156
			c0.1,0,0.2-0.1,0.1-0.2C156.2,26.3,156.2,26.2,156.1,26.2L156.1,26.2z"/>
		<circle class="st10" cx="62.7" cy="229" r="31.5"/>
		<path class="st13" d="M67.2,222.8c-0.9,0-1.7,0.7-1.7,1.7c0,0.9,0.7,1.7,1.7,1.7c0.9,0,1.7-0.7,1.7-1.7l0,0
			C68.9,223.6,68.1,222.8,67.2,222.8z"/>
		<path class="st13" d="M76.5,216.2L76.5,216.2c-0.1-0.5-0.5-0.9-0.9-1c-1.9-0.4-4.8,0-8,1.3c-3.1,1.2-6,3-8.4,5.3
			c-0.7,0.7-1.3,1.4-1.9,2.2c-1.2-0.1-2.5,0.1-3.7,0.6c-3.6,1.6-4.6,5.6-4.9,7.3c-0.1,0.8,0.4,1.7,1.3,1.8c0,0,0,0,0,0
			c0.1,0,0.3,0,0.4,0l0,0l4-0.4c0,0.1,0,0.1,0,0.1c0.1,0.5,0.3,0.9,0.6,1.3l2,2c0.3,0.3,0.8,0.6,1.3,0.6h0.1l-0.4,4l0,0
			c-0.1,0.9,0.5,1.6,1.4,1.7c0,0,0,0,0,0h0.1h0.3c1.7-0.3,5.7-1.3,7.3-4.9c0.5-1.2,0.7-2.4,0.6-3.6c0.8-0.6,1.5-1.2,2.1-1.9
			c2.3-2.4,4.1-5.2,5.3-8.3C76.4,221,76.9,218.1,76.5,216.2z M69.8,227.1c-1.4,1.4-3.8,1.4-5.2,0s-1.4-3.8,0-5.2
			c1.4-1.4,3.7-1.4,5.2,0l0,0C71.2,223.3,71.2,225.6,69.8,227.1L69.8,227.1L69.8,227.1z"/>
		<circle class="st10" cx="31.5" cy="145.2" r="31.5"/>
		<path class="st13" d="M36.6,162.4h-2.3c-0.9,0-1.7-0.8-1.7-1.7l0,0v-17.1c0-0.9,0.8-1.7,1.7-1.7h2.3c0.9,0,1.7,0.8,1.7,1.7l0,0
			v17.1C38.3,161.6,37.6,162.3,36.6,162.4z"/>
		<path class="st13" d="M44.6,162.4h-2.3c-0.9,0-1.7-0.8-1.7-1.7l0,0v-25.1c0-0.9,0.8-1.7,1.7-1.7h2.3c0.9,0,1.7,0.8,1.7,1.7
			c0,0,0,0,0,0v25.1C46.3,161.6,45.6,162.4,44.6,162.4L44.6,162.4z"/>
		<path class="st13" d="M28.6,162.4h-2.3c-0.9,0-1.7-0.8-1.7-1.7l0,0l0,0v-30.8c0-0.9,0.8-1.7,1.7-1.7c0,0,0,0,0,0h2.3
			c0.9,0,1.7,0.8,1.7,1.7l0,0v30.8C30.4,161.6,29.6,162.4,28.6,162.4C28.6,162.4,28.6,162.4,28.6,162.4z"/>
		<circle class="st10" cx="66.4" cy="62.6" r="31.5"/>
		<path class="st13" d="M71.4,60.7c-0.7,0-1.3-0.6-1.3-1.2c0-0.3,0.1-0.7,0.4-0.9l2.9-2.9l-2.9-2.9c-0.5-0.5-0.4-1.3,0.1-1.8
			c0.5-0.4,1.2-0.4,1.7,0l3.8,3.8c0.5,0.5,0.5,1.3,0,1.8l0,0l-3.8,3.8C72.1,60.6,71.8,60.7,71.4,60.7z"/>
		<path class="st13" d="M51.4,64.5c-0.7,0-1.2-0.6-1.2-1.2l0,0l0,0V62c0-4.1,3.4-7.5,7.5-7.5h16.2c0.7,0,1.2,0.6,1.2,1.2
			S74.6,57,73.9,57H57.7c-2.8,0-5,2.2-5,5v1.2C52.7,63.9,52.1,64.5,51.4,64.5L51.4,64.5z"/>
		<path class="st13" d="M61.4,74.5c-0.3,0-0.6-0.1-0.9-0.4l-3.8-3.8c-0.5-0.5-0.5-1.3,0-1.8c0,0,0,0,0,0l0,0l3.8-3.8
			c0.5-0.5,1.3-0.4,1.8,0.1c0.4,0.5,0.4,1.2,0,1.7l-2.9,2.9l2.9,2.9c0.5,0.5,0.5,1.3,0,1.8c0,0,0,0,0,0
			C62.1,74.3,61.8,74.5,61.4,74.5z"/>
		<path class="st13" d="M58.9,70.7c-0.7,0-1.2-0.6-1.2-1.2s0.6-1.2,1.2-1.2h16.2c2.8,0,5-2.2,5-5l0,0V62c0-0.7,0.6-1.2,1.2-1.2
			s1.2,0.6,1.2,1.2v1.2c0,4.1-3.4,7.5-7.5,7.5L58.9,70.7z"/>
		<circle class="st10" cx="220.2" cy="62.6" r="31.5"/>
		<path class="st13" d="M221.8,61.8l-1.6-1.6c-0.8-0.8-2-0.8-2.8,0L206,70.6c-0.4,0.4-0.7,0.9-0.7,1.4c0,0.6,0.2,1.1,0.6,1.5
			l2.4,2.5l0,0c0.4,0.4,0.9,0.6,1.4,0.6h0.1c0.6,0,1.1-0.3,1.4-0.7l10.5-11.3C222.5,63.8,222.5,62.6,221.8,61.8
			C221.7,61.8,221.7,61.8,221.8,61.8L221.8,61.8z"/>
		<path class="st13" d="M234.9,58.5L234.9,58.5l-2.1-2.1c-0.2-0.3-0.6-0.4-0.9-0.4c-0.3,0-0.6,0.1-0.8,0.3v-0.1
			c0.1-0.5,0-1.1-0.3-1.6c-0.5-0.6-1-1.2-1.6-1.8l0,0c-1.6-1.5-3.4-2.7-5.4-3.5c-1.1-0.4-2.2-0.7-3.3-0.7c-1.5,0-2.9,0.4-4.1,1.4
			c-0.3,0.3-0.6,0.6-0.9,1c-0.3,0.4-0.2,1.1,0.2,1.4c0.3,0.2,0.6,0.2,0.9,0.1c0.2-0.1,0.4-0.1,0.5-0.2c0.4-0.1,0.8-0.1,1.1-0.1
			c0.8,0.1,1.6,0.4,2.2,0.8c0.8,0.6,1.2,1.6,1.1,2.6c-0.3,0.8-0.7,1.5-1.2,2.2c-0.3,0.4-0.3,1,0.1,1.3l2.1,2.2c0.4,0.4,1,0.4,1.4,0
			c0.6-0.5,1.5-1.4,1.9-1.6c0.3-0.2,0.6-0.3,0.9-0.4c0.2,0,0.5,0,0.7,0.2c0,0,0,0,0,0.1l-0.1,0.1l0,0c-0.5,0.5-0.5,1.4,0,1.9
			c0,0,0,0,0,0l0,0l2.1,2.1c0.5,0.5,1.4,0.5,1.9,0l3.5-3.4l0,0C235.3,59.8,235.3,59,234.9,58.5z"/>
		<path class="st17" d="M100.6,224.4c0.1,0.1,0.2,0.1,0.2,0.2c1.5,1.4,1.6,3.8,0.2,5.3c-0.1,0.1-0.2,0.2-0.3,0.3
			c-0.1,0.1-0.2,0.2-0.3,0.2l0.6,19.3c0,1.3-0.8,2.4-2,2.9l0,0l-15.6,1.7c-1.8,0.1-3.3-1.2-3.5-3c-0.1-1.7,1.1-3.2,2.8-3.4l0,0
			l11.2-1l1.9-16.7c-0.1-0.1-0.2-0.2-0.3-0.4c-1.4-1.6-1.2-4,0.4-5.3C97.1,223.3,99.1,223.2,100.6,224.4L100.6,224.4z"/>
		
			<rect x="93" y="173" transform="matrix(0.9936 -0.1127 0.1127 0.9936 -23.9609 21.8413)" class="st1" width="176.5" height="99.8"/>
		<g class="st18">
			
				<rect x="106" y="220.7" transform="matrix(0.9936 -0.1127 0.1127 0.9936 -24.1958 13.4435)" class="st19" width="1.7" height="0.1"/>
			<path class="st19" d="M250.7,204.5l-3.2,0.4v-0.1L250.7,204.5L250.7,204.5z M244.2,205.2l-3.2,0.4v-0.1L244.2,205.2L244.2,205.2z
				 M237.7,206l-3.2,0.4v-0.1L237.7,206L237.7,206z M231.2,206.7l-3.3,0.4V207L231.2,206.7L231.2,206.7z M224.7,207.4l-3.3,0.4v-0.1
				L224.7,207.4L224.7,207.4z M218.2,208.2l-3.2,0.4v-0.1L218.2,208.2L218.2,208.2z M211.7,208.9l-3.2,0.4v-0.1L211.7,208.9
				L211.7,208.9z M205.2,209.7l-3.2,0.4v-0.1L205.2,209.7L205.2,209.7z M198.7,210.4l-3.2,0.4v-0.1L198.7,210.4L198.7,210.4z
				 M192.2,211.1l-3.2,0.4v-0.1L192.2,211.1L192.2,211.1z M185.7,211.9l-3.2,0.4v-0.1L185.7,211.9L185.7,211.9z M179.2,212.6
				l-3.2,0.4v-0.1L179.2,212.6L179.2,212.6z M172.7,213.3l-3.2,0.4v-0.1L172.7,213.3L172.7,213.3z M166.2,214.1l-3.2,0.4v-0.1
				L166.2,214.1L166.2,214.1z M159.7,214.8l-3.2,0.4v-0.1L159.7,214.8L159.7,214.8z M153.2,215.5l-3.2,0.4v-0.1L153.2,215.5
				L153.2,215.5z M146.7,216.3l-3.3,0.4v-0.1L146.7,216.3L146.7,216.3z M140.2,217l-3.2,0.4v-0.1L140.2,217L140.2,217z M133.7,217.8
				l-3.2,0.4v-0.1L133.7,217.8L133.7,217.8z M127.2,218.5l-3.2,0.4v-0.1L127.2,218.5L127.2,218.5z M120.7,219.2l-3.2,0.4v-0.1
				L120.7,219.2L120.7,219.2z M114.2,220l-3.2,0.4v-0.1L114.2,220L114.2,220z"/>
			
				<rect x="253.9" y="203.9" transform="matrix(0.9936 -0.1127 0.1127 0.9936 -21.3623 30.0066)" class="st19" width="1.7" height="0.1"/>
			
				<rect x="106" y="220.7" transform="matrix(0.9936 -0.1127 0.1127 0.9936 -24.1958 13.4435)" class="st19" width="1.7" height="0.1"/>
			<path class="st19" d="M250.7,204.5l-3.2,0.4v-0.1L250.7,204.5L250.7,204.5z M244.2,205.2l-3.2,0.4v-0.1L244.2,205.2L244.2,205.2z
				 M237.7,206l-3.2,0.4v-0.1L237.7,206L237.7,206z M231.2,206.7l-3.3,0.4V207L231.2,206.7L231.2,206.7z M224.7,207.4l-3.3,0.4v-0.1
				L224.7,207.4L224.7,207.4z M218.2,208.2l-3.2,0.4v-0.1L218.2,208.2L218.2,208.2z M211.7,208.9l-3.2,0.4v-0.1L211.7,208.9
				L211.7,208.9z M205.2,209.7l-3.2,0.4v-0.1L205.2,209.7L205.2,209.7z M198.7,210.4l-3.2,0.4v-0.1L198.7,210.4L198.7,210.4z
				 M192.2,211.1l-3.2,0.4v-0.1L192.2,211.1L192.2,211.1z M185.7,211.9l-3.2,0.4v-0.1L185.7,211.9L185.7,211.9z M179.2,212.6
				l-3.2,0.4v-0.1L179.2,212.6L179.2,212.6z M172.7,213.3l-3.2,0.4v-0.1L172.7,213.3L172.7,213.3z M166.2,214.1l-3.2,0.4v-0.1
				L166.2,214.1L166.2,214.1z M159.7,214.8l-3.2,0.4v-0.1L159.7,214.8L159.7,214.8z M153.2,215.5l-3.2,0.4v-0.1L153.2,215.5
				L153.2,215.5z M146.7,216.3l-3.3,0.4v-0.1L146.7,216.3L146.7,216.3z M140.2,217l-3.2,0.4v-0.1L140.2,217L140.2,217z M133.7,217.8
				l-3.2,0.4v-0.1L133.7,217.8L133.7,217.8z M127.2,218.5l-3.2,0.4v-0.1L127.2,218.5L127.2,218.5z M120.7,219.2l-3.2,0.4v-0.1
				L120.7,219.2L120.7,219.2z M114.2,220l-3.2,0.4v-0.1L114.2,220L114.2,220z"/>
			
				<rect x="253.9" y="203.9" transform="matrix(0.9936 -0.1127 0.1127 0.9936 -21.3623 30.0066)" class="st19" width="1.7" height="0.1"/>
		</g>
		<g class="st18">
			
				<rect x="104.6" y="208.3" transform="matrix(0.9936 -0.1127 0.1127 0.9936 -22.807 13.207)" class="st19" width="1.7" height="0.1"/>
			<path class="st19" d="M249.3,192.1l-3.2,0.4v-0.1L249.3,192.1L249.3,192.1z M242.8,192.8l-3.2,0.4v-0.1L242.8,192.8L242.8,192.8z
				 M236.3,193.6l-3.2,0.4v-0.1L236.3,193.6L236.3,193.6z M229.8,194.3l-3.2,0.4v-0.1L229.8,194.3L229.8,194.3z M223.3,195l-3.2,0.4
				v-0.1L223.3,195L223.3,195z M216.8,195.8l-3.2,0.4v-0.1L216.8,195.8L216.8,195.8z M210.3,196.5l-3.2,0.4v-0.1L210.3,196.5
				L210.3,196.5z M203.8,197.2l-3.2,0.4v-0.1L203.8,197.2L203.8,197.2z M197.3,198l-3.2,0.4v-0.1L197.3,198L197.3,198z M190.8,198.7
				l-3.2,0.4V199L190.8,198.7L190.8,198.7z M184.3,199.5l-3.2,0.4v-0.1L184.3,199.5L184.3,199.5z M177.8,200.2l-3.2,0.4v-0.1
				L177.8,200.2L177.8,200.2z M171.3,200.9l-3.3,0.4v-0.1L171.3,200.9L171.3,200.9z M164.8,201.7l-3.2,0.4v0L164.8,201.7
				L164.8,201.7z M158.3,202.4l-3.2,0.4v-0.1L158.3,202.4L158.3,202.4z M151.8,203.1l-3.2,0.4v-0.1L151.8,203.1L151.8,203.1z
				 M145.3,203.9l-3.2,0.4v-0.1L145.3,203.9L145.3,203.9z M138.8,204.6l-3.2,0.4v-0.1L138.8,204.6L138.8,204.6z M132.3,205.4
				l-3.2,0.4v-0.1L132.3,205.4L132.3,205.4z M125.8,206.1l-3.2,0.4v-0.1L125.8,206.1L125.8,206.1z M119.3,206.8l-3.2,0.4v-0.1
				L119.3,206.8L119.3,206.8z M112.8,207.6l-3.2,0.4v-0.1L112.8,207.6L112.8,207.6z"/>
			
				<rect x="252.5" y="191.5" transform="matrix(0.9936 -0.1127 0.1127 0.9936 -19.9736 29.77)" class="st19" width="1.7" height="0.1"/>
		</g>
		<g class="st18">
			
				<rect x="107.4" y="233.1" transform="matrix(0.9936 -0.1127 0.1127 0.9936 -25.5821 13.6808)" class="st19" width="1.7" height="0.1"/>
			<path class="st19" d="M252.1,216.9l-3.2,0.4v-0.1L252.1,216.9L252.1,216.9z M245.6,217.6l-3.2,0.4v-0.1L245.6,217.6L245.6,217.6z
				 M239.1,218.3l-3.2,0.4v-0.1L239.1,218.3L239.1,218.3z M232.6,219.1l-3.2,0.4v-0.1L232.6,219.1L232.6,219.1z M226.1,219.8
				l-3.2,0.4v-0.1L226.1,219.8L226.1,219.8z M219.6,220.6l-3.2,0.4v-0.1L219.6,220.6L219.6,220.6z M213.1,221.3l-3.2,0.4v-0.1
				L213.1,221.3L213.1,221.3z M206.6,222l-3.2,0.4v-0.1L206.6,222L206.6,222z M200.1,222.8l-3.2,0.4v-0.1L200.1,222.8L200.1,222.8z
				 M193.6,223.5l-3.2,0.4v-0.1L193.6,223.5L193.6,223.5z M187.1,224.2l-3.2,0.4v-0.1L187.1,224.2L187.1,224.2z M180.6,225l-3.2,0.4
				v-0.1L180.6,225L180.6,225z M174.1,225.7l-3.3,0.4V226L174.1,225.7L174.1,225.7z M167.6,226.5l-3.2,0.4v-0.1L167.6,226.5
				L167.6,226.5z M161.1,227.2l-3.2,0.4v-0.1L161.1,227.2L161.1,227.2z M154.6,227.9l-3.2,0.4v-0.1L154.6,227.9L154.6,227.9z
				 M148.1,228.7l-3.2,0.4v0L148.1,228.7L148.1,228.7z M141.6,229.4l-3.2,0.4v-0.1L141.6,229.4L141.6,229.4z M135.1,230.1l-3.2,0.4
				v-0.1L135.1,230.1L135.1,230.1z M128.6,230.9l-3.2,0.4v-0.1L128.6,230.9L128.6,230.9z M122.1,231.6l-3.2,0.4v-0.1L122.1,231.6
				L122.1,231.6z M115.6,232.4l-3.2,0.4v-0.1L115.6,232.4L115.6,232.4z"/>
			
				<rect x="255.4" y="216.3" transform="matrix(0.9936 -0.1127 0.1127 0.9936 -22.7497 30.2452)" class="st19" width="1.7" height="0.1"/>
			
				<rect x="107.4" y="233.1" transform="matrix(0.9936 -0.1127 0.1127 0.9936 -25.5821 13.6808)" class="st19" width="1.7" height="0.1"/>
			<path class="st19" d="M252.1,216.9l-3.2,0.4v-0.1L252.1,216.9L252.1,216.9z M245.6,217.6l-3.2,0.4v-0.1L245.6,217.6L245.6,217.6z
				 M239.1,218.3l-3.2,0.4v-0.1L239.1,218.3L239.1,218.3z M232.6,219.1l-3.2,0.4v-0.1L232.6,219.1L232.6,219.1z M226.1,219.8
				l-3.2,0.4v-0.1L226.1,219.8L226.1,219.8z M219.6,220.6l-3.2,0.4v-0.1L219.6,220.6L219.6,220.6z M213.1,221.3l-3.2,0.4v-0.1
				L213.1,221.3L213.1,221.3z M206.6,222l-3.2,0.4v-0.1L206.6,222L206.6,222z M200.1,222.8l-3.2,0.4v-0.1L200.1,222.8L200.1,222.8z
				 M193.6,223.5l-3.2,0.4v-0.1L193.6,223.5L193.6,223.5z M187.1,224.2l-3.2,0.4v-0.1L187.1,224.2L187.1,224.2z M180.6,225l-3.2,0.4
				v-0.1L180.6,225L180.6,225z M174.1,225.7l-3.3,0.4V226L174.1,225.7L174.1,225.7z M167.6,226.5l-3.2,0.4v-0.1L167.6,226.5
				L167.6,226.5z M161.1,227.2l-3.2,0.4v-0.1L161.1,227.2L161.1,227.2z M154.6,227.9l-3.2,0.4v-0.1L154.6,227.9L154.6,227.9z
				 M148.1,228.7l-3.2,0.4v0L148.1,228.7L148.1,228.7z M141.6,229.4l-3.2,0.4v-0.1L141.6,229.4L141.6,229.4z M135.1,230.1l-3.2,0.4
				v-0.1L135.1,230.1L135.1,230.1z M128.6,230.9l-3.2,0.4v-0.1L128.6,230.9L128.6,230.9z M122.1,231.6l-3.2,0.4v-0.1L122.1,231.6
				L122.1,231.6z M115.6,232.4l-3.2,0.4v-0.1L115.6,232.4L115.6,232.4z"/>
			
				<rect x="255.4" y="216.3" transform="matrix(0.9936 -0.1127 0.1127 0.9936 -22.7497 30.2452)" class="st19" width="1.7" height="0.1"/>
		</g>
		<g class="st18">
			
				<rect x="108.8" y="245.5" transform="matrix(0.9936 -0.1127 0.1127 0.9936 -26.9674 13.9181)" class="st19" width="1.7" height="0.1"/>
			<path class="st19" d="M253.5,229.2l-3.2,0.4v-0.1L253.5,229.2L253.5,229.2z M247,230l-3.2,0.4v-0.1L247,230L247,230z
				 M240.5,230.7l-3.3,0.4V231l3.2-0.4L240.5,230.7z M234,231.5l-3.2,0.4v-0.1L234,231.5L234,231.5z M227.5,232.2l-3.2,0.4v-0.1
				L227.5,232.2L227.5,232.2z M221,233l-3.2,0.4v-0.1L221,233L221,233z M214.5,233.7l-3.2,0.4V234L214.5,233.7L214.5,233.7z
				 M208,234.4l-3.2,0.4v-0.1L208,234.4L208,234.4z M201.5,235.2l-3.3,0.4v-0.1L201.5,235.2L201.5,235.2z M195,235.9l-3.2,0.4v-0.1
				L195,235.9L195,235.9z M188.5,236.6l-3.2,0.4v-0.1L188.5,236.6L188.5,236.6z M182,237.4l-3.2,0.4v-0.1L182,237.4L182,237.4z
				 M175.5,238.1l-3.2,0.4v-0.1L175.5,238.1L175.5,238.1z M169,238.8l-3.2,0.4v-0.1L169,238.8L169,238.8z M162.5,239.6l-3.2,0.4
				v-0.1L162.5,239.6L162.5,239.6z M156,240.3l-3.2,0.4v-0.1L156,240.3L156,240.3z M149.5,241.1l-3.2,0.4v-0.1L149.5,241.1
				L149.5,241.1z M143,241.8l-3.2,0.4v-0.1L143,241.8L143,241.8z M136.5,242.5l-3.2,0.4v-0.1L136.5,242.5L136.5,242.5z M130,243.3
				l-3.2,0.4v-0.1L130,243.3L130,243.3z M123.5,244l-3.2,0.4v-0.1L123.5,244L123.5,244z M117,244.7l-3.2,0.4V245l3.2-0.4V244.7z"/>
			
				<rect x="256.7" y="228.7" transform="matrix(0.9936 -0.1127 0.1127 0.9936 -24.1351 30.4813)" class="st19" width="1.7" height="0.1"/>
			
				<rect x="108.8" y="245.5" transform="matrix(0.9936 -0.1127 0.1127 0.9936 -26.9674 13.9181)" class="st19" width="1.7" height="0.1"/>
			<path class="st19" d="M253.5,229.2l-3.2,0.4v-0.1L253.5,229.2L253.5,229.2z M247,230l-3.2,0.4v-0.1L247,230L247,230z
				 M240.5,230.7l-3.3,0.4V231l3.2-0.4L240.5,230.7z M234,231.5l-3.2,0.4v-0.1L234,231.5L234,231.5z M227.5,232.2l-3.2,0.4v-0.1
				L227.5,232.2L227.5,232.2z M221,233l-3.2,0.4v-0.1L221,233L221,233z M214.5,233.7l-3.2,0.4V234L214.5,233.7L214.5,233.7z
				 M208,234.4l-3.2,0.4v-0.1L208,234.4L208,234.4z M201.5,235.2l-3.3,0.4v-0.1L201.5,235.2L201.5,235.2z M195,235.9l-3.2,0.4v-0.1
				L195,235.9L195,235.9z M188.5,236.6l-3.2,0.4v-0.1L188.5,236.6L188.5,236.6z M182,237.4l-3.2,0.4v-0.1L182,237.4L182,237.4z
				 M175.5,238.1l-3.2,0.4v-0.1L175.5,238.1L175.5,238.1z M169,238.8l-3.2,0.4v-0.1L169,238.8L169,238.8z M162.5,239.6l-3.2,0.4
				v-0.1L162.5,239.6L162.5,239.6z M156,240.3l-3.2,0.4v-0.1L156,240.3L156,240.3z M149.5,241.1l-3.2,0.4v-0.1L149.5,241.1
				L149.5,241.1z M143,241.8l-3.2,0.4v-0.1L143,241.8L143,241.8z M136.5,242.5l-3.2,0.4v-0.1L136.5,242.5L136.5,242.5z M130,243.3
				l-3.2,0.4v-0.1L130,243.3L130,243.3z M123.5,244l-3.2,0.4v-0.1L123.5,244L123.5,244z M117,244.7l-3.2,0.4V245l3.2-0.4V244.7z"/>
			
				<rect x="256.7" y="228.7" transform="matrix(0.9936 -0.1127 0.1127 0.9936 -24.1351 30.4813)" class="st19" width="1.7" height="0.1"/>
		</g>
		<g class="st18">
			
				<rect x="110.2" y="257.9" transform="matrix(0.9936 -0.1127 0.1127 0.9936 -28.355 14.1544)" class="st19" width="1.7" height="0.1"/>
			<path class="st19" d="M254.9,241.6l-3.2,0.4v-0.1L254.9,241.6L254.9,241.6z M248.4,242.4l-3.2,0.4v-0.1L248.4,242.4L248.4,242.4z
				 M241.9,243.1l-3.2,0.4v-0.1L241.9,243.1L241.9,243.1z M235.4,243.9l-3.2,0.4v-0.1L235.4,243.9L235.4,243.9z M228.9,244.6
				l-3.2,0.4v-0.1L228.9,244.6L228.9,244.6z M222.4,245.3l-3.2,0.4v-0.1L222.4,245.3L222.4,245.3z M215.9,246.1l-3.2,0.4v-0.1
				L215.9,246.1L215.9,246.1z M209.4,246.8l-3.2,0.4v-0.1L209.4,246.8L209.4,246.8z M202.9,247.5l-3.2,0.4v-0.1L202.9,247.5
				L202.9,247.5z M196.4,248.3l-3.2,0.4v-0.1L196.4,248.3L196.4,248.3z M189.9,249l-3.3,0.4v-0.1L189.9,249L189.9,249z M183.4,249.7
				l-3.3,0.4V250l3.2-0.4L183.4,249.7z M176.9,250.5l-3.2,0.4v-0.1L176.9,250.5L176.9,250.5z M170.4,251.2l-3.2,0.4v-0.1
				L170.4,251.2L170.4,251.2z M163.9,252l-3.2,0.4v-0.1L163.9,252L163.9,252z M157.4,252.7l-3.2,0.4V253L157.4,252.7L157.4,252.7z
				 M150.9,253.4l-3.2,0.4v-0.1L150.9,253.4L150.9,253.4z M144.4,254.2l-3.2,0.4v-0.1L144.4,254.2L144.4,254.2z M137.9,254.9
				l-3.2,0.4v-0.1L137.9,254.9L137.9,254.9z M131.4,255.6l-3.2,0.4v-0.1L131.4,255.6L131.4,255.6z M124.9,256.4l-3.2,0.4v-0.1
				L124.9,256.4L124.9,256.4z M118.4,257.1l-3.2,0.4v-0.1L118.4,257.1L118.4,257.1z"/>
			
				<rect x="258.1" y="241.1" transform="matrix(0.9936 -0.1127 0.1127 0.9936 -25.5227 30.7177)" class="st19" width="1.7" height="0.1"/>
			
				<rect x="110.2" y="257.9" transform="matrix(0.9936 -0.1127 0.1127 0.9936 -28.355 14.1544)" class="st19" width="1.7" height="0.1"/>
			<path class="st19" d="M254.9,241.6l-3.2,0.4v-0.1L254.9,241.6L254.9,241.6z M248.4,242.4l-3.2,0.4v-0.1L248.4,242.4L248.4,242.4z
				 M241.9,243.1l-3.2,0.4v-0.1L241.9,243.1L241.9,243.1z M235.4,243.9l-3.2,0.4v-0.1L235.4,243.9L235.4,243.9z M228.9,244.6
				l-3.2,0.4v-0.1L228.9,244.6L228.9,244.6z M222.4,245.3l-3.2,0.4v-0.1L222.4,245.3L222.4,245.3z M215.9,246.1l-3.2,0.4v-0.1
				L215.9,246.1L215.9,246.1z M209.4,246.8l-3.2,0.4v-0.1L209.4,246.8L209.4,246.8z M202.9,247.5l-3.2,0.4v-0.1L202.9,247.5
				L202.9,247.5z M196.4,248.3l-3.2,0.4v-0.1L196.4,248.3L196.4,248.3z M189.9,249l-3.3,0.4v-0.1L189.9,249L189.9,249z M183.4,249.7
				l-3.3,0.4V250l3.2-0.4L183.4,249.7z M176.9,250.5l-3.2,0.4v-0.1L176.9,250.5L176.9,250.5z M170.4,251.2l-3.2,0.4v-0.1
				L170.4,251.2L170.4,251.2z M163.9,252l-3.2,0.4v-0.1L163.9,252L163.9,252z M157.4,252.7l-3.2,0.4V253L157.4,252.7L157.4,252.7z
				 M150.9,253.4l-3.2,0.4v-0.1L150.9,253.4L150.9,253.4z M144.4,254.2l-3.2,0.4v-0.1L144.4,254.2L144.4,254.2z M137.9,254.9
				l-3.2,0.4v-0.1L137.9,254.9L137.9,254.9z M131.4,255.6l-3.2,0.4v-0.1L131.4,255.6L131.4,255.6z M124.9,256.4l-3.2,0.4v-0.1
				L124.9,256.4L124.9,256.4z M118.4,257.1l-3.2,0.4v-0.1L118.4,257.1L118.4,257.1z"/>
			
				<rect x="258.1" y="241.1" transform="matrix(0.9936 -0.1127 0.1127 0.9936 -25.5227 30.7177)" class="st19" width="1.7" height="0.1"/>
		</g>
		<line class="st20" x1="123.6" y1="206.4" x2="129.2" y2="256"/>
		<line class="st20" x1="143.7" y1="204.1" x2="149.4" y2="253.7"/>
		<line class="st20" x1="163.8" y1="201.8" x2="169.5" y2="251.4"/>
		<line class="st20" x1="183.9" y1="199.5" x2="189.6" y2="249.2"/>
		<line class="st20" x1="204.1" y1="197.2" x2="209.7" y2="246.9"/>
		<line class="st20" x1="224.2" y1="194.9" x2="229.8" y2="244.6"/>
		<path class="st21" d="M248.3,188.8l-2,2.7c0,0.1-0.1,0.1-0.1,0.2l-1.1,3.1c-0.1,0.3-0.3,0.4-0.6,0.4H244c-0.3,0-0.5-0.1-0.6-0.4
			l-0.6-1.5c-0.1-0.3-0.5-0.5-0.8-0.4c0,0,0,0,0,0c-0.2,0.1-0.3,0.3-0.4,0.5l-0.5,2.3c-0.1,0.3-0.3,0.5-0.6,0.5l-2.8,0.3
			c-0.3,0-0.6-0.2-0.7-0.5l-1.4-4.9c-0.1-0.3-0.4-0.6-0.8-0.5c0,0,0,0,0,0c-0.2,0.1-0.4,0.2-0.4,0.4l-3.2,8.6
			c-0.1,0.3-0.5,0.5-0.8,0.4h-0.1l-2.6-1.4c-0.3-0.2-0.7-0.1-0.9,0.2l-0.8,1.2c0,0-0.1,0.1-0.1,0.1l-2,4.5c-0.1,0.2-0.3,0.4-0.6,0.4
			h-1.5c-0.1,0-0.2,0-0.3,0.1l-1.3,0.7c-0.3,0.2-0.7,0-0.9-0.2l-0.4-0.6c-0.1-0.2-0.4-0.4-0.7-0.3l-1.5,0.2c-0.2,0-0.4,0.1-0.4,0.3
			l-0.4,0.6c-0.2,0.3-0.6,0.4-0.9,0.2c0,0,0,0,0,0c-0.1-0.1-0.2-0.2-0.2-0.3l-0.7-1.5c-0.2-0.3-0.5-0.5-0.9-0.3c0,0,0,0,0,0
			c-0.1,0-0.1,0.1-0.2,0.1l-2.4,2.3l-2.6,2.7c-0.2,0.2-0.5,0.3-0.7,0.1l-2.4-0.9c-0.1,0-0.3,0-0.4,0l-4.4,1.1
			c-0.3,0.1-0.5,0.3-0.5,0.6l-0.4,3.6c0,0.4-0.4,0.6-0.7,0.6c-0.1,0-0.2-0.1-0.3-0.1l0,0c-0.3-0.2-0.7-0.1-0.9,0.2c0,0,0,0,0,0
			c0,0-0.1,0.1-0.1,0.1l-0.5,1.3c-0.1,0.2-0.2,0.4-0.4,0.4l-1.4,0.4c-0.1,0-0.2,0.1-0.2,0.1l-2.1,1.7c-0.1,0.1-0.2,0.1-0.4,0.1
			l-1,0.1c-0.3,0-0.5-0.1-0.6-0.3l-0.4-0.6c-0.2-0.3-0.6-0.4-0.9-0.2c0,0,0,0,0,0l0,0l-2.3,1.4c-0.2,0.1-0.4,0.1-0.6,0l-1.2-0.5
			c-0.1,0-0.2-0.1-0.4-0.1l-2.4,0.3c-0.1,0-0.3,0.1-0.4,0.1l-2.2,1.9c-0.2,0.2-0.4,0.2-0.6,0.1l-1.2-0.4c-0.3-0.1-0.6,0-0.8,0.2
			l-0.5,0.7c-0.2,0.3-0.6,0.4-0.9,0.2c-0.1,0-0.1-0.1-0.2-0.2l-0.2-0.3c-0.2-0.3-0.6-0.4-0.9-0.1l0,0l-1.8,1.4
			c-0.2,0.1-0.4,0.2-0.6,0.1l-0.8-0.4c-0.2-0.1-0.4-0.1-0.6,0l-0.7,0.4c-0.3,0.3-0.7,0.3-0.9,0c0,0-0.1-0.1-0.1-0.1v-0.1l-0.6-1.4
			c-0.1-0.3-0.4-0.4-0.7-0.4l-0.7,0.1c-0.1,0-0.2,0-0.3,0l-2.9-1.2c-0.2-0.1-0.5-0.1-0.7,0.1l-1.8,1.7c-0.1,0.1-0.2,0.2-0.4,0.2
			l-2.5,0.3c-0.1,0-0.3,0.1-0.4,0.1l-0.4,0.4c-0.3,0.2-0.7,0.2-0.9-0.1c0,0,0,0,0,0v-0.1l-0.1-0.2c-0.1-0.2-0.4-0.3-0.6-0.3
			l-1.2,0.1c-0.2,0-0.4,0.1-0.5,0.3l-0.7,1.1c-0.2,0.3-0.6,0.4-0.9,0.2c0,0,0,0,0,0c-0.1,0-0.1-0.1-0.2-0.1l-0.3-0.3
			c-0.2-0.3-0.6-0.3-0.9-0.1l-0.6,0.5c-0.2,0.1-0.5,0.1-0.7,0l-2.8-1.6l-0.2-0.1l-2.1-0.6c-0.3-0.1-0.7,0.1-0.8,0.5l-1,3.6
			c0,0.1,0,0.1,0,0.2l-0.1,3.1c0,0.1,0,0.3-0.1,0.4l-0.9,1.1c-0.2,0.2-0.5,0.3-0.8,0.2l-1.9-0.7c-0.3-0.1-0.7,0-0.9,0.4v0.1
			l-0.7,3.2c0,0.1,0,0.1,0,0.2l0.2,2c0,0.3-0.1,0.5-0.3,0.6l-1.6,0.9c-0.2,0.1-0.4,0.1-0.6,0l-1.4-0.6c-0.1,0-0.3,0-0.4,0l-2.2,0.6
			c-0.3,0.1-0.5,0-0.7-0.2l-0.4-0.6c-0.1-0.1-0.2-0.2-0.4-0.2l-1.1-0.2c-0.3-0.1-0.5,0.1-0.7,0.3l-1.2,1.7c-0.1,0.1-0.2,0.2-0.4,0.3
			l-2.1,0.4c-0.1,0-0.2,0.1-0.3,0.1l-3.4,2.5c-0.2,0.1-0.5,0.1-0.7,0l-1.1-0.7c-0.1-0.1-0.3-0.1-0.4-0.1l-3.9,0.4
			c-0.2,0-0.4,0-0.5-0.2l-1.1-1.1c-0.3-0.3-0.7-0.3-0.9,0l-0.1,0.1l-1,1.5c-0.1,0.1-0.1,0.3-0.1,0.4l1.9,16.4c0,0.4,0.4,0.6,0.7,0.6
			c0,0,0,0,0,0l141.6-16c0.4,0,0.6-0.4,0.6-0.7l0,0l-5.9-51.9c0-0.4-0.3-0.6-0.7-0.6c0,0,0,0,0,0
			C248.6,188.6,248.4,188.7,248.3,188.8z"/>
		<path class="st21" d="M250.6,210.1l-2,1.7c-0.1,0.1-0.1,0.1-0.2,0.2l-1.1,1.9c-0.1,0.2-0.4,0.4-0.6,0.4h-0.4
			c-0.3,0-0.6-0.1-0.8-0.4l-0.3-0.6c-0.2-0.4-0.7-0.5-1.1-0.3c-0.2,0.1-0.3,0.2-0.3,0.4l-0.4,1.1c-0.1,0.3-0.4,0.5-0.7,0.5l-2.7,0.3
			c-0.4,0-0.7-0.2-0.9-0.5l-1-2.6c-0.2-0.4-0.6-0.6-1-0.5c-0.2,0.1-0.3,0.2-0.4,0.3l-3.4,5.4c-0.2,0.3-0.6,0.5-0.9,0.3l-2.7-0.9
			c-0.3-0.1-0.6,0-0.8,0.2l-0.8,0.8c0,0-0.1,0.1-0.1,0.1l-2.1,2.9c-0.1,0.2-0.4,0.3-0.6,0.4l-1.6,0.1c-0.1,0-0.2,0-0.2,0.1l-1.4,0.5
			c-0.3,0.1-0.7,0-0.9-0.2l-0.2-0.2c-0.2-0.2-0.5-0.3-0.7-0.3l-1.6,0.2c-0.2,0-0.3,0.1-0.5,0.2l-0.4,0.4c-0.3,0.3-0.8,0.3-1.1,0
			c0,0,0,0,0,0c0,0-0.1-0.1-0.1-0.1l-0.5-0.7c-0.3-0.4-0.7-0.4-1.1-0.2l-2.5,1.6l-2.8,1.8c-0.2,0.1-0.4,0.2-0.6,0.1l-2.4-0.5
			c-0.1,0-0.2,0-0.3,0l-4.5,0.9c-0.3,0.1-0.5,0.3-0.6,0.6l-0.4,1.9c-0.1,0.4-0.5,0.7-1,0.6c0,0,0,0,0,0h-0.1l0,0
			c-0.4-0.2-0.8,0-1,0.3l-0.4,0.7c-0.1,0.2-0.3,0.3-0.5,0.4l-1.4,0.3c-0.1,0-0.2,0-0.2,0.1l-2.1,1.2c-0.1,0.1-0.2,0.1-0.3,0.1
			l-1.1,0.1c-0.3,0-0.5-0.1-0.7-0.3l-0.2-0.2c-0.2-0.3-0.6-0.4-0.9-0.2l-2.4,1c-0.2,0.1-0.4,0.1-0.5,0l-1.2-0.3c-0.1,0-0.2,0-0.3,0
			l-2.5,0.3c-0.1,0-0.2,0-0.3,0.1l-2.4,1.3c-0.2,0.1-0.4,0.1-0.5,0.1l-1.3-0.2c-0.3,0-0.5,0-0.7,0.2l-0.5,0.5
			c-0.3,0.3-0.8,0.3-1.1,0l-0.1-0.1c-0.2-0.2-0.6-0.3-0.9-0.1l-1.9,1c-0.2,0.1-0.4,0.1-0.6,0.1l-0.9-0.2c-0.2,0-0.3,0-0.5,0.1
			l-0.8,0.3c-0.4,0.2-0.8,0-1-0.3l-0.4-0.6c-0.2-0.3-0.5-0.4-0.8-0.4l-0.7,0.1c-0.1,0-0.2,0-0.3,0l-2.9-0.7c-0.2-0.1-0.4,0-0.6,0.1
			l-1.9,1.2c-0.1,0.1-0.2,0.1-0.3,0.1l-2.6,0.3c-0.1,0-0.2,0-0.3,0.1L159,235c-0.3,0.2-0.7,0.1-1-0.1l0,0c-0.2-0.2-0.4-0.3-0.7-0.2
			l-1.3,0.1c-0.2,0-0.4,0.1-0.5,0.2l-0.7,0.7c-0.3,0.3-0.8,0.3-1.1,0.1l-0.2-0.1c-0.2-0.2-0.6-0.2-0.9-0.1l-0.7,0.4
			c-0.2,0.1-0.4,0.1-0.6,0l-2.8-0.9c0,0-0.1,0-0.1,0l-2.1-0.3c-0.3-0.1-0.7,0.1-0.8,0.4l-1.1,2.2c0,0.1-0.1,0.2-0.1,0.3l-0.2,1.8
			c0,0.2-0.1,0.4-0.3,0.5l-0.8,0.7c-0.2,0.2-0.5,0.2-0.7,0.2l-1.8-0.4c-0.4-0.1-0.8,0.1-0.9,0.5l-0.7,1.9c0,0.1-0.1,0.3-0.1,0.4
			l0.1,0.8c0,0.4-0.2,0.7-0.5,0.9l-1.5,0.6c-0.2,0.1-0.3,0.1-0.5,0L135,245c-0.1,0-0.2,0-0.4,0l-2.3,0.5c-0.2,0-0.5,0-0.7-0.2
			l-0.3-0.3c-0.1-0.1-0.3-0.2-0.5-0.2l-1.1-0.1c-0.2,0-0.5,0.1-0.6,0.2l-1.3,1.1c-0.1,0.1-0.3,0.2-0.4,0.2l-2.1,0.4
			c-0.1,0-0.2,0-0.2,0.1l-3.6,1.8c-0.2,0.1-0.4,0.1-0.7,0l-1.1-0.4c-0.1,0-0.2,0-0.4,0l-4,0.4c-0.2,0-0.4,0-0.5-0.1l-1-0.7
			c-0.3-0.2-0.7-0.2-1,0.1l-0.9,0.9c-0.2,0.2-0.3,0.4-0.3,0.7l0.9,7.7c0,0.4,0.4,0.8,0.9,0.7l141.3-16c0.4-0.1,0.8-0.5,0.7-0.9
			l-3.5-30.2c0-0.4-0.4-0.8-0.9-0.7c0,0,0,0,0,0C250.9,210,250.7,210,250.6,210.1z"/>
		<path class="st21" d="M253.1,229l-2.5,1.2l-0.1,0.1l-1.3,1.1c-0.1,0.1-0.2,0.1-0.3,0.1l-0.9,0.1c-0.2,0-0.3,0-0.5-0.1l-0.6-0.6
			c-0.3-0.2-0.7-0.2-0.9,0.1l0,0l-0.8,1c-0.1,0.1-0.2,0.2-0.4,0.2l-3.2,0.4c-0.2,0-0.5-0.1-0.6-0.3l-0.9-1.4
			c-0.2-0.3-0.5-0.4-0.8-0.2c0,0,0,0,0,0l0,0l-4.2,3.4c-0.1,0.1-0.3,0.2-0.4,0.1l-3.2-0.4c-0.1,0-0.2,0-0.4,0.1l-1.1,0.6l-0.1,0.1
			l-2.4,1.7c-0.1,0.1-0.2,0.1-0.3,0.1l-1.9,0.1h-0.1l-1.8,0.4c-0.2,0-0.3,0-0.5-0.1l-0.4-0.2c-0.1-0.1-0.3-0.1-0.4-0.1l-2,0.2
			c-0.1,0-0.2,0-0.2,0.1l-0.8,0.5c-0.2,0.1-0.5,0.1-0.7,0l-0.8-0.6c-0.2-0.1-0.4-0.2-0.6-0.1l-2.9,1.1l-3,1.1c-0.1,0-0.2,0-0.2,0
			l-2.7-0.1h-0.1l-4.8,0.8c-0.2,0-0.3,0.1-0.4,0.3l-0.6,1.1c-0.1,0.2-0.4,0.4-0.6,0.3l-0.8-0.1c-0.2,0-0.4,0-0.5,0.1l-0.7,0.6
			c-0.1,0.1-0.2,0.1-0.3,0.1l-1.6,0.3h-0.1l-2.3,0.8c0,0-0.1,0-0.1,0l-1.4,0.2c-0.1,0-0.3,0-0.4-0.1l-0.4-0.2
			c-0.1-0.1-0.3-0.1-0.5-0.1l-2.9,0.8c-0.1,0-0.1,0-0.2,0l-1.4-0.1h-0.1l-2.7,0.3h-0.1l-2.7,0.9c-0.1,0-0.1,0-0.2,0l-1.6-0.1
			c-0.1,0-0.2,0-0.3,0.1l-1,0.5c-0.2,0.1-0.4,0.1-0.5,0l-0.5-0.2c-0.1-0.1-0.3-0.1-0.4,0l-2.4,0.8c-0.1,0-0.1,0-0.2,0l-1.2-0.1
			c-0.1,0-0.1,0-0.2,0l-1.3,0.3c-0.2,0.1-0.4,0-0.5-0.1l-0.5-0.4c-0.1-0.1-0.3-0.1-0.5-0.1l-1,0.1h-0.1l-3.1-0.2c-0.1,0-0.2,0-0.3,0
			l-2.2,0.8c0,0-0.1,0-0.1,0l-2.8,0.3H161l-0.9,0.3c-0.2,0.1-0.3,0.1-0.5,0l-0.3-0.1c-0.1,0-0.2-0.1-0.3-0.1l-1.7,0.2
			c-0.1,0-0.2,0-0.2,0.1l-1.1,0.6c-0.2,0.1-0.3,0.1-0.5,0l-0.7-0.2c-0.1,0-0.3,0-0.4,0l-1.2,0.4c-0.1,0-0.2,0-0.2,0l-2.9-0.3H150
			h-2.4c-0.2,0-0.3,0.1-0.4,0.2l-1.3,1.2c-0.1,0.1-0.1,0.2-0.1,0.2l-0.2,0.7c-0.1,0.2-0.2,0.3-0.3,0.4l-1,0.5
			c-0.1,0-0.2,0.1-0.3,0.1l-2.4-0.1c-0.2,0-0.4,0.1-0.5,0.2l-0.8,1c-0.1,0.1-0.2,0.3-0.1,0.5l0,0c0,0.3-0.2,0.6-0.5,0.7l-1.7,0.4
			c-0.1,0-0.1,0-0.2,0l-1.6-0.1c0,0-0.1,0-0.1,0l-2.7,0.4c-0.1,0-0.2,0-0.3,0l-0.5-0.2c-0.1,0-0.2,0-0.2,0h-1.4
			c-0.1,0-0.2,0-0.3,0.1l-1.6,0.8c-0.1,0-0.1,0.1-0.2,0.1l-2.3,0.3h-0.1l-3.9,1.2c-0.1,0-0.2,0-0.3,0l-1.4-0.2h-0.2l-4.3,0.5
			c-0.1,0-0.2,0-0.2,0l-1.4-0.4c-0.1,0-0.3,0-0.4,0.1l-1.2,0.6c-0.2,0.1-0.4,0.4-0.3,0.6v0.3c0,0.3,0.3,0.6,0.7,0.5c0,0,0,0,0,0l0,0
			l141.6-15.8c0.3,0,0.6-0.3,0.6-0.7l0,0l-1.4-11.6c0-0.3-0.3-0.6-0.7-0.6C253.3,228.9,253.2,229,253.1,229z"/>
		<circle class="st10" cx="146.5" cy="234.8" r="1.9"/>
		<circle class="st10" cx="191.2" cy="230.6" r="1.9"/>
		<circle class="st10" cx="215.5" cy="220.9" r="1.9"/>
		<path class="st22" d="M252.2,210.6c-0.1-0.4-0.5-0.8-0.9-0.7c-0.2,0-0.3,0.1-0.4,0.2l-2,1.7c-0.1,0.1-0.1,0.1-0.2,0.2l-1.1,1.9
			c-0.1,0.2-0.4,0.4-0.6,0.4h-0.4c-0.3,0-0.6-0.1-0.8-0.4l-0.3-0.6c-0.2-0.4-0.7-0.5-1.1-0.3c-0.2,0.1-0.3,0.2-0.4,0.4l-0.4,1.1
			c-0.1,0.3-0.4,0.5-0.7,0.5l-2.7,0.3c-0.4,0-0.7-0.2-0.9-0.5l-0.9-2.6c-0.2-0.4-0.6-0.6-1.1-0.5c-0.2,0.1-0.3,0.2-0.4,0.3l-3.4,5.4
			c-0.2,0.3-0.6,0.5-0.9,0.4l-2.7-0.9c-0.3-0.1-0.6,0-0.8,0.2l-0.8,0.8l-0.1,0.1l-2.1,3c-0.1,0.2-0.4,0.3-0.6,0.4l-1.6,0.1
			c-0.1,0-0.2,0-0.2,0.1l-1.4,0.5c-0.3,0.1-0.7,0-0.9-0.2l-0.2-0.2c-0.2-0.2-0.5-0.3-0.7-0.3l-1.6,0.2c-0.2,0-0.3,0.1-0.5,0.2
			l-0.4,0.4c-0.3,0.3-0.8,0.3-1.1,0l-0.1-0.1l-0.5-0.7c-0.2-0.4-0.7-0.4-1.1-0.2l-2.5,1.6l-2.8,1.8c-0.2,0.1-0.4,0.2-0.6,0.1
			l-2.4-0.5c-0.1,0-0.2,0-0.3,0l-4.5,0.9c-0.3,0.1-0.5,0.3-0.6,0.6l-0.4,1.9c-0.1,0.4-0.5,0.7-1,0.6c0,0,0,0,0,0h-0.1l0,0
			c-0.4-0.2-0.8,0-1,0.3l-0.4,0.7c-0.1,0.2-0.3,0.3-0.5,0.4l-1.4,0.3c-0.1,0-0.2,0-0.2,0.1l-2.1,1.2c-0.1,0.1-0.2,0.1-0.3,0.1
			l-1.1,0.1c-0.3,0-0.5-0.1-0.7-0.3l-0.2-0.2c-0.2-0.3-0.6-0.4-0.9-0.2l-2.4,1c-0.2,0.1-0.4,0.1-0.5,0l-1.2-0.3c-0.1,0-0.2,0-0.3,0
			l-2.5,0.3c-0.1,0-0.2,0-0.3,0.1l-2.4,1.3c-0.2,0.1-0.4,0.1-0.6,0.1l-1.3-0.2c-0.2,0-0.5,0-0.7,0.2l-0.5,0.5
			c-0.3,0.3-0.8,0.3-1.1,0l-0.1-0.1c-0.2-0.2-0.6-0.3-0.9-0.1l-1.9,1c-0.2,0.1-0.4,0.1-0.6,0.1l-0.9-0.2c-0.2,0-0.3,0-0.5,0.1
			l-0.8,0.3c-0.4,0.2-0.8,0-1-0.3l-0.4-0.6c-0.2-0.3-0.5-0.4-0.8-0.4l-0.7,0.1c-0.1,0-0.2,0-0.3,0l-2.9-0.7c-0.2,0-0.4,0-0.6,0.1
			l-1.9,1.2c-0.1,0.1-0.2,0.1-0.3,0.1l-2.6,0.3c-0.1,0-0.2,0-0.3,0.1l-0.5,0.3c-0.3,0.2-0.7,0.1-1-0.1l0,0c-0.2-0.2-0.4-0.3-0.7-0.2
			l-1.3,0.1c-0.2,0-0.4,0.1-0.5,0.2l-0.7,0.7c-0.3,0.3-0.8,0.3-1.1,0.1l-0.2-0.2c-0.3-0.2-0.6-0.2-0.9-0.1l-0.7,0.4
			c-0.2,0.1-0.4,0.1-0.6,0l-2.8-0.9h-0.1l-2.1-0.3c-0.3-0.1-0.7,0.1-0.8,0.4l-1.1,2.2c0,0.1-0.1,0.2-0.1,0.3l-0.2,1.8
			c0,0.2-0.1,0.4-0.3,0.5l-0.8,0.7c-0.2,0.2-0.5,0.2-0.7,0.2l-1.8-0.4c-0.4-0.1-0.9,0.1-1,0.5l-0.7,1.9c-0.1,0.1-0.1,0.3-0.1,0.4
			l0.1,0.8c0,0.4-0.2,0.7-0.5,0.9l-1.5,0.6c-0.2,0.1-0.3,0.1-0.5,0l-1.4-0.4c-0.1,0-0.2,0-0.4,0l-2.3,0.5c-0.2,0-0.5,0-0.7-0.2
			l-0.3-0.3c-0.1-0.1-0.3-0.2-0.5-0.2l-1.1-0.1c-0.2,0-0.4,0.1-0.6,0.2l-1.2,1.2c-0.1,0.1-0.3,0.2-0.4,0.2l-2.1,0.4
			c-0.1,0-0.2,0-0.2,0.1l-3.6,1.8c-0.2,0.1-0.4,0.1-0.7,0L120,248c-0.1,0-0.3,0-0.4,0l-4,0.5c-0.2,0-0.4,0-0.5-0.1l-1-0.7
			c-0.3-0.2-0.7-0.2-1,0.1l-0.9,0.9c-0.2,0.2-0.3,0.4-0.3,0.7"/>
		
			<rect x="105.3" y="261" transform="matrix(0.9936 -0.1127 0.1127 0.9936 -28.2222 22.6707)" class="st23" width="162.2" height="0"/>
		<circle class="st21" cx="130.6" cy="267.3" r="1.4"/>
		<circle class="st21" cx="150.7" cy="265" r="1.4"/>
		<circle class="st21" cx="170.9" cy="262.8" r="1.4"/>
		<circle class="st21" cx="191" cy="260.5" r="1.4"/>
		<circle class="st21" cx="211.1" cy="258.2" r="1.4"/>
		<circle class="st21" cx="231.2" cy="255.9" r="1.4"/>
		<circle class="st17" cx="79.8" cy="230.2" r="8.4"/>
		<path class="st1" d="M98.9,341.8h-4.7c-0.8,0-1.5-0.6-1.5-1.4l-4.8-44.7c0-0.3-0.2-0.5-0.5-0.5c-0.2,0-0.4,0.1-0.5,0.4l-8.6,19
			l-15.2,24.7c-0.4,0.7-1.2,0.9-1.9,0.6l-6.1-2.7c-0.8-0.3-1.1-1.2-0.8-2c0-0.1,0.1-0.1,0.1-0.2l14-23.4l4.3-19.7
			c-1.3-8.5,4.4-21.2,4.5-21.4v-0.1l15.9-6.2l0.1,0.1c6.3,20.6,10.1,42.7,7.3,75.9C100.4,341.2,99.7,341.8,98.9,341.8z"/>
		<path class="st24" d="M76.6,272.7l-0.1-0.2c-2.4-5.1-4.5-10.3-6.3-15.5c-1.1-3.1-0.8-6.5,0.8-9.4c1.6-2.9,4.3-5,7.6-5.8l0,0
			c5.7-1.4,11.6,1.7,13.8,7.1c2.2,5.4,1.5,11.2,0.8,15.7v0.1h-0.1L76.6,272.7z"/>
		<path class="st1" d="M76,218.6c-8,0-10.2,10-10.2,15.7c0,3.2,1.4,4.3,3.7,4.7l0.8-4.2l1.8,4.4c0.6,0,1.3,0,2,0l0.6-1.3l1.4,1.3
			c5.6,0,10.2,0.8,10.2-4.8S84.2,218.6,76,218.6z"/>
		<path class="st17" d="M111.5,229.8c0.1,0.1,0.1,0.2,0.1,0.3c0.9,1.9,0,4.1-1.9,5c0,0,0,0,0,0c-0.1,0.1-0.3,0.1-0.4,0.1l-0.4,0.1
			l-7,18c-0.5,1.2-1.7,2-3,1.9l0,0l-15-4.6c-1.7-0.5-2.8-2.2-2.3-4s2.2-2.8,4-2.3c0.1,0,0.1,0,0.2,0.1l0,0l10.7,3.4l8.2-14.6
			c-0.9-1.9-0.2-4.1,1.7-5.1C108.3,227.2,110.6,227.9,111.5,229.8L111.5,229.8z"/>
	</g>
</g>
</svg>
