<?xml version="1.0" encoding="utf-8"?>
<!-- Generator: Adobe Illustrator 24.0.1, SVG Export Plug-In . SVG Version: 6.00 Build 0)  -->
<svg version="1.1" id="Layer_1" xmlns="http://www.w3.org/2000/svg" xmlns:xlink="http://www.w3.org/1999/xlink" x="0px" y="0px"
	 viewBox="0 0 450.2 361" style="enable-background:new 0 0 450.2 361;" xml:space="preserve">
<style type="text/css">
	.st0{fill:#D1CDE2;}
	.st1{fill:#DFDBE5;}
	.st2{fill:#FFFFFF;}
	.st3{fill:#E6E6E5;}
	.st4{fill:#403E56;}
	.st5{opacity:0.1;fill:#FAAB54;enable-background:new    ;}
	.st6{fill:#FAAB54;}
	.st7{fill:#A0626B;}
	.st8{fill:#302E41;}
	.st9{fill:#585B8A;}
	.st10{fill:#F9B7B8;}
	.st11{opacity:0.2;fill:#010101;enable-background:new    ;}
	.st12{fill:#72451B;}
	.st13{opacity:0.8;fill:#F15A5B;enable-background:new    ;}
	.st14{opacity:0.8;fill:#FFD353;enable-background:new    ;}
	.st15{opacity:0.8;fill:#8EC851;enable-background:new    ;}
	.st16{opacity:0.2;fill:#9787C0;enable-background:new    ;}
	.st17{fill:#DFE3EE;}
	.st18{opacity:0.2;fill:#FAAB54;enable-background:new    ;}
</style>
<title>medium</title>
<g id="Layer_2_1_">
	<g id="Layer_1-2">
		<path class="st0" d="M133,248c-1.2,0-2.3,0-3.5-0.1v-1.2c1.1,0,2.3,0.1,3.5,0.1s2.3,0,3.5-0.1v1.2C135.4,248,134.2,248,133,248z
			 M122.5,247.5c-2.3-0.2-4.7-0.5-7-0.9l0.2-1.2c2.3,0.4,4.6,0.7,6.9,0.9L122.5,247.5z M143.6,247.5l-0.1-1.2
			c2.3-0.2,4.6-0.5,6.9-0.9l0.2,1.2C148.2,247,145.9,247.3,143.6,247.5L143.6,247.5z M108.6,245.3c-2.3-0.5-4.6-1.1-6.8-1.8l0.3-1.1
			c2.2,0.7,4.5,1.2,6.7,1.8L108.6,245.3z M157.5,245.3l-0.3-1.1c2.3-0.5,4.5-1.1,6.8-1.8l0.3,1.1
			C162.1,244.2,159.8,244.8,157.5,245.3z M95.1,241.3c-2.2-0.8-4.4-1.7-6.5-2.6l0.5-1.1c2.1,0.9,4.3,1.8,6.5,2.6L95.1,241.3z
			 M171,241.3l-0.4-1.1c2.2-0.8,4.3-1.7,6.4-2.6l0.5,1.1C175.4,239.5,173.2,240.4,171,241.3L171,241.3z M82.2,235.6
			c-2.1-1.1-4.1-2.2-6.1-3.5l0.6-1c2,1.2,4,2.4,6.1,3.4L82.2,235.6z M183.9,235.6l-0.6-1c2.1-1.1,4.1-2.2,6.1-3.4l0.6,1
			c-2,1.1-4.1,2.2-6.1,3.3V235.6z M70.1,228.2c-1.9-1.3-3.8-2.8-5.7-4.2l0.7-0.9c1.8,1.4,3.7,2.9,5.6,4.2L70.1,228.2z M195.9,228.2
			l-0.7-1c1.9-1.3,3.8-2.7,5.6-4.2l0.7,0.9C199.7,225.4,197.8,226.9,195.9,228.2L195.9,228.2z M59.1,219.4c-1.7-1.6-3.4-3.2-5.1-4.9
			l0.8-0.8c1.6,1.7,3.3,3.3,5,4.9L59.1,219.4z M206.9,219.4l-0.8-0.9c1.7-1.6,3.4-3.2,5-4.9l0.8,0.8
			C210.3,216.2,208.6,217.8,206.9,219.4L206.9,219.4z M49.3,209.3c-1.5-1.8-3-3.6-4.4-5.5l0.9-0.7c1.4,1.9,2.8,3.7,4.3,5.4
			L49.3,209.3z M216.7,209.3l-0.9-0.8c1.5-1.8,3-3.6,4.4-5.4l0.9,0.7C219.7,205.7,218.2,207.5,216.7,209.3z M40.8,198.1
			c-1.3-2-2.5-4-3.7-6l1-0.6c1.1,2,2.4,4,3.6,5.9L40.8,198.1z M225.1,198l-1-0.6c1.3-1.9,2.5-4,3.6-6l1,0.6
			C227.6,193.9,226.4,196,225.1,198L225.1,198z M33.9,185.8c-1-2.1-2-4.3-2.9-6.4l1.1-0.4c0.9,2.1,1.9,4.3,2.9,6.4L33.9,185.8z
			 M232.1,185.7l-1-0.5c1-2.1,2-4.2,2.8-6.4l1.1,0.4C234.1,181.4,233.1,183.6,232.1,185.7L232.1,185.7z M28.6,172.8
			c-0.7-2.2-1.4-4.5-2-6.8l1.1-0.3c0.6,2.2,1.3,4.5,2,6.7L28.6,172.8z M237.4,172.7l-1.1-0.4c0.7-2.2,1.4-4.4,2-6.7l1.1,0.3
			C238.8,168.1,238.1,170.4,237.4,172.7L237.4,172.7z M25,159.1c-0.5-2.3-0.8-4.6-1.1-6.9L25,152c0.3,2.3,0.7,4.6,1.1,6.9L25,159.1z
			 M240.9,159l-1.1-0.2c0.4-2.3,0.8-4.6,1.1-6.9l1.2,0.1C241.8,154.4,241.4,156.7,240.9,159L240.9,159z M23.2,145.2
			c-0.1-2.3-0.2-4.7-0.2-7.1h1.2c0,2.3,0.1,4.7,0.2,7L23.2,145.2z M242.7,145l-1.2-0.1c0.1-2.3,0.2-4.6,0.2-7v-0.2h1.2v0.3
			C242.9,140.4,242.9,142.7,242.7,145z M24.4,131.2l-1.2-0.1c0.1-2.3,0.4-4.7,0.7-7l1.2,0.2C24.8,126.5,24.5,128.9,24.4,131.2z
			 M241.5,130.8c-0.1-2.3-0.4-4.7-0.7-6.9l1.2-0.2c0.3,2.3,0.5,4.7,0.7,7L241.5,130.8z M26.1,117.3l-1.1-0.2c0.4-2.3,1-4.6,1.5-6.9
			l1.1,0.3C27.1,112.8,26.6,115.1,26.1,117.3z M239.7,117c-0.4-2.3-1-4.6-1.6-6.8l1.1-0.3c0.6,2.3,1.1,4.6,1.6,6.9L239.7,117z
			 M29.6,103.8l-1.1-0.4c0.7-2.2,1.5-4.4,2.4-6.6l1.1,0.4C31.2,99.4,30.4,101.7,29.6,103.8z M236.2,103.5c-0.7-2.2-1.6-4.4-2.4-6.5
			l1.1-0.4c0.9,2.2,1.7,4.4,2.4,6.6L236.2,103.5z M34.9,90.9l-1-0.5c1-2.1,2.1-4.2,3.3-6.3l1,0.6C37,86.7,35.9,88.8,34.9,90.9z
			 M230.9,90.6c-1-2.1-2.1-4.2-3.2-6.2l1-0.6c1.2,2,2.3,4.1,3.3,6.2L230.9,90.6z M41.7,78.8l-1-0.6c1.3-2,2.6-3.9,4-5.8l0.9,0.7
			C44.3,74.9,43,76.8,41.7,78.8z M224,78.5c-1.3-1.9-2.6-3.8-4-5.7l0.9-0.7c1.4,1.9,2.8,3.8,4,5.8L224,78.5z M50,67.6l-0.9-0.8
			c1.5-1.8,3.1-3.5,4.7-5.2l0.8,0.8C53.1,64.1,51.5,65.8,50,67.6L50,67.6z M215.7,67.3c-1.5-1.8-3.1-3.5-4.7-5.2l0.8-0.8
			c1.6,1.7,3.2,3.4,4.8,5.2L215.7,67.3z M59.7,57.5L59,56.7c1.7-1.6,3.5-3.1,5.4-4.6L65,53C63.2,54.5,61.5,56,59.7,57.5z M206,57.3
			c-1.7-1.5-3.5-3.1-5.3-4.5l0.7-0.9c1.8,1.5,3.6,3,5.4,4.6L206,57.3z M70.6,48.8l-0.7-1c1.9-1.3,3.9-2.6,5.9-3.9l0.6,1
			C74.5,46.2,72.5,47.5,70.6,48.8z M195.1,48.7c-1.9-1.3-3.9-2.6-5.9-3.8l0.6-1c2,1.2,4,2.5,5.9,3.8L195.1,48.7z M82.5,41.6l-0.5-1
			c2.1-1.1,4.2-2.1,6.3-3.1l0.5,1.1C86.7,39.5,84.6,40.5,82.5,41.6z M183.1,41.4c-2-1.1-4.2-2.1-6.3-3l0.5-1.1c2.1,0.9,4.3,2,6.4,3
			L183.1,41.4z M95.2,35.9l-0.4-1.1c2.2-0.8,4.4-1.6,6.7-2.2l0.3,1.1C99.6,34.4,97.4,35.1,95.2,35.9z M170.4,35.8
			c-2.2-0.8-4.4-1.5-6.6-2.2l0.3-1.1c2.2,0.7,4.5,1.4,6.7,2.2L170.4,35.8z M108.6,32l-0.3-1.1c2.3-0.5,4.6-1,6.9-1.4l0.2,1.1
			C113.1,31,110.8,31.4,108.6,32z M157,31.9c-2.2-0.5-4.6-1-6.9-1.3l0.2-1.1c2.3,0.4,4.6,0.8,6.9,1.3L157,31.9z M122.3,29.7
			l-0.1-1.2c2.3-0.2,4.7-0.4,7-0.5v1.2C126.9,29.3,124.6,29.5,122.3,29.7L122.3,29.7z M143.2,29.7c-2.3-0.2-4.6-0.4-7-0.4v-1.2
			c2.3,0.1,4.7,0.2,7,0.4V29.7z"/>
		<rect x="69.6" y="82.6" class="st1" width="378.5" height="242.4"/>
		<rect x="103.1" y="115.1" class="st2" width="136.6" height="140.4"/>
		<rect x="290.9" y="115.1" class="st2" width="136.6" height="170.5"/>
		<ellipse class="st3" cx="425.7" cy="339.1" rx="24.5" ry="3.5"/>
		<ellipse class="st3" cx="180.9" cy="339.2" rx="24.5" ry="3.5"/>
		<path class="st4" d="M397.4,159.9h-0.8v-22.7c0-7.2-5.9-13.1-13.1-13.1c0,0,0,0,0,0h-48.1c-7.2,0-13.1,5.9-13.1,13.1l0,0v124.4
			c0,7.2,5.9,13.1,13.1,13.1h48c7.2,0,13.1-5.9,13.1-13.1c0,0,0,0,0,0l0,0V176h0.8L397.4,159.9z"/>
		<path class="st2" d="M383.4,127.5h-6.3c1,2.4-0.2,5.1-2.5,6.1c0,0,0,0,0,0c-0.6,0.2-1.1,0.3-1.8,0.3h-27.5c-2.6,0-4.6-2.1-4.6-4.6
			c0-0.6,0.1-1.2,0.3-1.8h-5.9c-5.4,0-9.8,4.4-9.8,9.8l0,0v124.2c0,5.4,4.4,9.8,9.8,9.8h48.3c5.4,0,9.8-4.4,9.8-9.8l0,0V137.3
			C393.2,131.9,388.8,127.5,383.4,127.5z"/>
		<rect x="124" y="203.8" class="st5" width="95" height="4.3"/>
		<rect x="124" y="217.8" class="st6" width="95" height="4.3"/>
		<rect x="124" y="231.8" class="st5" width="95" height="4.3"/>
		<rect x="332.1" y="213.2" class="st5" width="55.5" height="4.3"/>
		<rect x="332.1" y="226.7" class="st5" width="55.5" height="4.3"/>
		<rect x="332.1" y="240.1" class="st5" width="55.5" height="4.3"/>
		<rect x="384.1" y="298.2" class="st4" width="9.2" height="9.2"/>
		<rect x="369.2" y="298.2" class="st6" width="9.2" height="9.2"/>
		<rect x="354.3" y="298.2" class="st4" width="9.2" height="9.2"/>
		<rect x="339.4" y="298.2" class="st4" width="9.2" height="9.2"/>
		<rect x="324.5" y="298.2" class="st4" width="9.2" height="9.2"/>
		<rect x="343.9" y="157.1" class="st6" width="30.8" height="30.8"/>
		<path class="st7" d="M159.3,230.6l-0.4,0.8l-1.2-6c0,0-1.6-6.4,1.6-6.4s2.4,6.4,2.4,6.4v4.4L159.3,230.6z"/>
		<path class="st7" d="M211.6,229.8l0.4,0.8l1.2-6c0,0,1.6-6.4-1.6-6.4s-2.4,6.4-2.4,6.4v4.4L211.6,229.8z"/>
		<polygon class="st8" points="176.8,275.4 172,304.9 174.4,333.6 180,331.3 179.2,309.7 184.8,292.6 186,312.9 183.6,334 
			190.8,334.9 195.9,291.4 195.6,276.6 		"/>
		<path class="st8" d="M176.8,330.1l-2.8,4.4v9.8c0,0.6,0.4,1.1,1,1.2c1.4,0.2,3.8,0.4,4.6-1c1.2-2,0.4-6.4,0.4-6.4s1.6-3.2,0.8-5.6
			s-1.6-2.8-1.6-2.8L176.8,330.1z"/>
		<path class="st8" d="M188.8,334l0.8,1.2c0,0,1.2,1.2,0.4,2c-0.6,0.6-1.1,1.3-1.6,2c0,0-4.4,1.2-4.4-0.4v-5.2L188.8,334z"/>
		<circle class="st7" cx="187.3" cy="237.7" r="5.3"/>
		<polygon class="st7" points="183.8,239.4 183.4,246.9 190.6,247.3 190.2,239.8 		"/>
		<path class="st9" d="M191.6,247.5l-1.1-2.8c0,0-5.2-2-6.8,0l-0.8,2.4l-6.4-1.6l-3.6,8l3.2,22.7c0,0,8.4,10.8,19.5,0.4l3.2-21.5
			l-2.4-8.4L191.6,247.5z"/>
		<polygon class="st9" points="195.6,248.3 196.4,246.7 204.3,241.9 209.2,227.5 213,229.2 208.7,246.3 197.1,257.1 		"/>
		<polygon class="st9" points="177.2,246.3 176.4,245.5 168,240.4 162.1,228.4 157.3,230 162.5,244.7 175.2,255.1 		"/>
		<path class="st8" d="M191.3,229.6l0.9-0.4l-1.3-0.4v-0.4c0,0-6.5-2.6-7.4,1.7c-2.3,3.1-2.3,7.3,0,10.4v1.3l6.9,0.9l0.9-2.6
			C191.3,240,195.6,232.2,191.3,229.6z"/>
		<rect x="124.1" y="131.2" class="st5" width="94.7" height="54.3"/>
		<path class="st10" d="M406,239l0.4-2.8c0,0,2.6-5.8,0.5-6.1s-3.7,5.2-3.7,5.2l0.7,5.9L406,239z"/>
		<polygon class="st9" points="426.7,255.1 408.6,251.4 406.5,238.3 401.2,237.9 401.5,254.9 417.1,263.1 		"/>
		<polygon class="st11" points="426.7,255.1 408.6,251.4 406.5,238.3 401.2,237.9 401.5,254.9 417.1,263.1 		"/>
		<rect x="377.5" y="231.2" class="st6" width="55.5" height="4.3"/>
		<path class="st10" d="M402.5,238v-2.9c0,0,1.6-6.1-0.4-6.1s-2.9,5.7-2.9,5.7l1.6,5.7L402.5,238z"/>
		<path class="st8" d="M426,246.2l2.5-0.6c3.5,0,6.4-2.8,6.4-6.4c0,0,0,0,0,0c0-0.4,0-0.9-0.1-1.3l0,0c0-4.6-3.7-8.3-8.3-8.4
			c0,0,0,0,0,0l0,0c-4.6,0-8.4,3.7-8.4,8.3c0,0,0,0,0,0.1l0,0c-1,3.5,1,7.2,4.5,8.2C423.7,246.5,424.9,246.5,426,246.2z"/>
		<polygon class="st8" points="411.4,287.5 413.4,309.6 417.1,331.3 423.2,331.3 422.4,310.1 419.2,284.3 		"/>
		<path class="st8" d="M417.9,330.1l-4.1,2.5c0,0-6.5,0.8-5.3,2.9s15.5,0.8,15.5,0s-0.4-5.3-1.2-5.3L417.9,330.1z"/>
		<path class="st8" d="M429.5,285.6c0,0-0.1,3.2-3,8.1l0.4,15.1l14.7,18.8l-5.3,4.5l-18-20.5l-4.5-24.5l5.7-5.7L429.5,285.6z"/>
		<path class="st8" d="M440.4,327.7c0,0,4.9,0.8,4.1,2.9s-2.9,11.5-8.2,10.2c0,0-2.5,0-1.6-1.6c0.5-1,1-1.9,1.6-2.9V331L440.4,327.7
			z"/>
		<circle class="st10" cx="423.3" cy="240.5" r="6.1"/>
		<polygon class="st10" points="426.2,244.6 426.2,251.6 419.6,251.6 420.5,244.6 		"/>
		<path class="st9" d="M418,249.1l2-0.5l6.2,0.5c0,0,3.3,3.3,2.9,4.1s-2.5,20.9-2.5,20.9l3.7,14.3l-13.1,0.8l-6.5-0.8l1.3-25.8
			c0,0-2.9-7,0.8-9C414.8,252.5,416.6,251,418,249.1z"/>
		<polygon class="st9" points="425.4,250.8 406.9,249.9 402.9,237.2 397.5,237.6 400.4,254.4 417.1,260.1 		"/>
		<circle class="st8" cx="435.2" cy="232.1" r="4"/>
		<path class="st8" d="M431.5,229.9c0-2.2,1.7-3.9,3.9-4c0.3,0,0.5,0,0.8,0.1c-2.1-0.6-4.3,0.5-5,2.7c-0.5,1.7,0.1,3.5,1.6,4.5
			c0.3,0.1,0.6,0.2,0.9,0.3C432.4,232.8,431.5,231.4,431.5,229.9z"/>
		<path class="st8" d="M428.1,232.2l-5.3-1l-4.1,2.6c-2.1,1.3-3.2,3.7-2.9,6.1l4.1-1l0.9-2.3l1.1,1.8l4.5,7.8l4.5-2.4l2.9-4.5
			L428.1,232.2z"/>
		
			<rect x="358.9" y="150.7" transform="matrix(0.7071 -0.7071 0.7071 0.7071 -16.6318 304.6599)" class="st2" width="1.1" height="43.4"/>
		
			<rect x="337.8" y="171.9" transform="matrix(0.7071 -0.7071 0.7071 0.7071 -16.6268 304.6579)" class="st2" width="43.4" height="1.1"/>
		<path class="st12" d="M448.4,78.9V86H69.6v-7.1c0-5.1,4.1-9.2,9.2-9.2h0h360.3C444.2,69.7,448.4,73.8,448.4,78.9
			C448.4,78.9,448.4,78.9,448.4,78.9z"/>
		<circle class="st13" cx="80.6" cy="77.8" r="3.3"/>
		<circle class="st14" cx="90.1" cy="77.8" r="3.3"/>
		<circle class="st15" cx="99.6" cy="77.8" r="3.3"/>
		<rect x="125.1" y="132.7" class="st16" width="92.6" height="51.4"/>
		<rect x="143.3" y="168.5" class="st2" width="2.8" height="9.4"/>
		<rect x="148.7" y="156.9" class="st2" width="2.8" height="21"/>
		<rect x="154" y="146.4" class="st17" width="2.8" height="31.5"/>
		<rect x="159.4" y="138.9" class="st2" width="2.8" height="38.9"/>
		<rect x="154" y="138.9" class="st6" width="2.8" height="38.9"/>
		<rect x="164.7" y="156.5" class="st6" width="2.8" height="21.4"/>
		<rect x="170" y="150.9" class="st2" width="2.8" height="26.9"/>
		<rect x="175.4" y="142.5" class="st2" width="2.8" height="35.3"/>
		<rect x="180.7" y="162.1" class="st18" width="2.8" height="15.7"/>
		<rect x="186" y="154.9" class="st18" width="2.8" height="23"/>
		<rect x="191.4" y="146.4" class="st18" width="2.8" height="31.5"/>
		<rect x="196.7" y="146.4" class="st18" width="2.8" height="31.5"/>
		<path class="st6" d="M277.1,150.7h-24c-2.9,0-5.3-2.4-5.3-5.3v-24c0-2.9,2.4-5.3,5.3-5.3h24c2.9,0,5.3,2.4,5.3,5.3v24
			C282.4,148.4,280,150.7,277.1,150.7z M253.1,117.2c-2.3,0-4.2,1.9-4.2,4.2v24c0,2.3,1.9,4.2,4.2,4.2h24c2.3,0,4.2-1.9,4.2-4.2v-24
			c0-2.3-1.9-4.2-4.2-4.2L253.1,117.2z"/>
		<path class="st6" d="M272.3,144h-14.5c-0.9,0-1.7-0.8-1.7-1.7v-17.9c0-0.9,0.8-1.7,1.7-1.7h10.5c0.4,0,0.8,0.1,1,0.4l4,3.2
			c0.4,0.3,0.6,0.8,0.6,1.3v14.7C274,143.3,273.2,144,272.3,144z M257.8,123.9c-0.3,0-0.6,0.3-0.6,0.6v17.9c0,0.3,0.3,0.6,0.6,0.6
			h14.5c0.3,0,0.6-0.3,0.6-0.6v-14.7c0-0.2-0.1-0.3-0.2-0.4l-4-3.2c-0.1-0.1-0.2-0.1-0.4-0.1L257.8,123.9z"/>
		<path class="st6" d="M269.5,130.6h-8.9c-0.3,0-0.6-0.3-0.6-0.6c0-0.3,0.3-0.6,0.6-0.6h8.9c0.3,0,0.6,0.3,0.6,0.6
			C270.1,130.4,269.8,130.6,269.5,130.6z"/>
		<path class="st6" d="M269.5,134h-8.9c-0.3,0-0.6-0.3-0.6-0.6c0-0.3,0.3-0.6,0.6-0.6h8.9c0.3,0,0.6,0.2,0.6,0.6
			C270.1,133.7,269.9,134,269.5,134C269.5,134,269.5,134,269.5,134z"/>
		<path class="st6" d="M269.5,137.3h-8.9c-0.3,0-0.6-0.3-0.6-0.6c0-0.3,0.3-0.6,0.6-0.6h8.9c0.3,0,0.6,0.2,0.6,0.6
			C270.1,137.1,269.9,137.3,269.5,137.3C269.5,137.3,269.5,137.3,269.5,137.3z"/>
		<path class="st6" d="M277.4,230.6h-24c-2.9,0-5.3-2.4-5.3-5.3v-24c0-2.9,2.4-5.3,5.3-5.3h24c2.9,0,5.3,2.4,5.3,5.3v24
			C282.7,228.2,280.3,230.6,277.4,230.6z M253.4,197c-2.3,0-4.2,1.9-4.2,4.2l0,0v24c0,2.3,1.9,4.2,4.2,4.2l0,0h24
			c2.3,0,4.2-1.9,4.2-4.2v-24c0-2.3-1.9-4.2-4.2-4.2H253.4z"/>
		<path class="st6" d="M273.2,219.4h-15.7c-0.9,0-1.7-0.8-1.7-1.7v-8.9c0-0.9,0.8-1.7,1.7-1.7h15.7c0.9,0,1.7,0.8,1.7,1.7v8.9
			C274.9,218.6,274.1,219.4,273.2,219.4z M257.5,208.2c-0.3,0-0.6,0.3-0.6,0.6v8.9c0,0.3,0.3,0.6,0.6,0.6h15.7
			c0.3,0,0.6-0.3,0.5-0.6v-8.9c0-0.3-0.2-0.6-0.5-0.6H257.5z"/>
		<path class="st6" d="M265.4,214.7c-0.3,0-0.6-0.1-0.9-0.2l-8.4-5.2c-0.3-0.2-0.3-0.5-0.1-0.8c0.2-0.2,0.5-0.3,0.7-0.2l8.4,5.2
			c0.2,0.1,0.4,0.1,0.6,0l8.4-5.2c0.3-0.1,0.6,0,0.8,0.2c0.1,0.3,0.1,0.6-0.2,0.7l-8.4,5.2C266,214.6,265.7,214.7,265.4,214.7z"/>
		<path class="st6" d="M277.4,190.7h-24c-2.9,0-5.3-2.4-5.3-5.3v-24c0-2.9,2.4-5.3,5.3-5.3h24c2.9,0,5.3,2.4,5.3,5.3v24
			C282.7,188.3,280.3,190.7,277.4,190.7z M253.4,157.1c-2.3,0-4.2,1.9-4.2,4.2l0,0v24c0,2.3,1.9,4.2,4.2,4.2c0,0,0,0,0,0h24
			c2.3,0,4.2-1.9,4.2-4.2l0,0v-24c0-2.3-1.9-4.2-4.2-4.2H253.4z"/>
		<path class="st6" d="M273.2,179.5h-15.7c-0.9,0-1.7-0.8-1.7-1.7v-8.9c0-0.9,0.8-1.7,1.7-1.7h15.7c0.9,0,1.7,0.8,1.7,1.7v8.9
			C274.9,178.7,274.1,179.5,273.2,179.5z M257.5,168.3c-0.3,0-0.6,0.3-0.6,0.6v8.9c0,0.3,0.3,0.6,0.6,0.6h15.7
			c0.3,0,0.6-0.3,0.5-0.6v-8.9c0-0.3-0.2-0.6-0.5-0.6H257.5z"/>
		<path class="st6" d="M270.7,179.5h-11.2c-0.6,0-1.1-0.5-1.1-1.1c0-0.2,0-0.4,0.1-0.6l3.4-5.9c0.3-0.5,1-0.7,1.5-0.4
			c0.2,0.1,0.3,0.2,0.4,0.4l2.2,3.8l1.3-2.2c0.3-0.5,1-0.7,1.5-0.4c0,0,0,0,0,0c0.2,0.1,0.3,0.2,0.4,0.4l2.5,4.3
			c0.3,0.5,0.1,1.2-0.4,1.5c0,0,0,0,0,0C271,179.4,270.8,179.5,270.7,179.5L270.7,179.5z M270.7,178.4L270.7,178.4l-2.5-4.3l-1.8,3
			c-0.1,0.2-0.3,0.3-0.5,0.3l0,0c-0.2,0-0.4-0.1-0.5-0.3l-2.7-4.6l-3.4,5.9L270.7,178.4z"/>
		<circle class="st6" cx="271.5" cy="170.5" r="1.1"/>
		<circle class="st6" cx="128.4" cy="28.2" r="28.2"/>
		<path class="st2" d="M140.4,26h-9.8c-1.9,0-3.4-1.5-3.4-3.4v0v-9.9c0-0.2-0.1-0.3-0.3-0.3h-6.5c-2.5,0-4.5,2-4.5,4.5c0,0,0,0,0,0
			v22.4c0,2.5,2,4.5,4.5,4.5c0,0,0,0,0,0h15.7c2.5,0,4.5-2,4.5-4.5c0,0,0,0,0,0l0,0V26.2C140.7,26.1,140.6,25.9,140.4,26L140.4,26z
			 M134,37.2h-11.3c-0.6,0-1.1-0.5-1.1-1.1c0-0.6,0.5-1.1,1.1-1.1H134c0.6,0,1.1,0.5,1.1,1.1C135.1,36.7,134.6,37.2,134,37.2z
			 M134,31.6h-11.3c-0.6-0.1-1.1-0.6-1-1.2c0.1-0.5,0.5-1,1-1H134c0.6,0.1,1.1,0.6,1,1.2C135,31.1,134.5,31.5,134,31.6z"/>
		<path class="st2" d="M139.8,23.5l-10.1-10.1c-0.1-0.1-0.1-0.1-0.2,0c0,0,0,0.1,0,0.1v9.1c0,0.6,0.5,1.1,1.1,1.1h9.1
			c0.1,0,0.1-0.1,0.1-0.1C139.9,23.5,139.9,23.5,139.8,23.5L139.8,23.5z"/>
		<circle class="st6" cx="56.1" cy="205.1" r="28.2"/>
		<path class="st2" d="M60.2,199.5c-0.8,0-1.5,0.6-1.6,1.4c0,0.8,0.6,1.5,1.4,1.6c0.8,0,1.5-0.6,1.6-1.4c0-0.4-0.1-0.8-0.4-1.1
			C60.9,199.7,60.6,199.5,60.2,199.5z"/>
		<path class="st2" d="M68.5,193.6L68.5,193.6c-0.1-0.4-0.4-0.7-0.8-0.9c-1.7-0.4-4.3,0-7.2,1.2c-2.8,1.1-5.4,2.7-7.5,4.8
			c-0.6,0.6-1.1,1.2-1.7,1.9c-1.1-0.1-2.2,0.1-3.3,0.5c-3.2,1.4-4.2,5.1-4.4,6.6c-0.1,0.8,0.4,1.5,1.2,1.6c0.1,0,0.3,0,0.4,0l0,0
			l3.6-0.4c0,0,0,0.1,0,0.1c0,0.4,0.2,0.8,0.5,1.2l1.7,1.8c0.3,0.3,0.7,0.5,1.2,0.6h0.1l-0.4,3.6l0,0c-0.1,0.8,0.5,1.4,1.2,1.5
			c0,0,0,0,0,0h0.1c0.1,0,0.2,0,0.2,0c1.5-0.2,5.1-1.1,6.6-4.4c0.4-1,0.6-2.2,0.5-3.3c0.7-0.5,1.3-1.1,1.9-1.6
			c2.1-2.2,3.7-4.7,4.8-7.5C68.5,197.9,68.9,195.3,68.5,193.6z M62.5,203.3c-1.3,1.3-3.4,1.3-4.7,0c-1.3-1.3-1.3-3.4,0-4.7
			s3.4-1.3,4.7,0c0,0,0,0,0,0l0,0C63.8,200,63.8,202,62.5,203.3L62.5,203.3L62.5,203.3z"/>
		<circle class="st6" cx="28.2" cy="130.1" r="28.2"/>
		<path class="st2" d="M32.8,145.4h-2c-0.8,0-1.5-0.7-1.5-1.5l0,0v-15.3c0-0.8,0.7-1.5,1.5-1.5h2c0.8,0,1.5,0.7,1.5,1.5l0,0v15.3
			C34.3,144.7,33.6,145.4,32.8,145.4L32.8,145.4z"/>
		<path class="st2" d="M40,145.4h-2c-0.8,0-1.5-0.7-1.5-1.5c0,0,0,0,0,0l0,0v-22.5c0-0.9,0.7-1.5,1.5-1.5l0,0h2
			c0.8,0,1.5,0.7,1.5,1.5c0,0,0,0,0,0v22.5C41.5,144.7,40.9,145.4,40,145.4C40,145.4,40,145.4,40,145.4z"/>
		<path class="st2" d="M25.6,145.4h-2c-0.8,0-1.5-0.7-1.5-1.5l0,0v-27.6c0-0.8,0.7-1.5,1.5-1.5h2c0.8,0,1.5,0.7,1.5,1.5v27.6
			C27.2,144.7,26.5,145.4,25.6,145.4z"/>
		<circle class="st6" cx="59.5" cy="56.1" r="28.2"/>
		<path class="st2" d="M64,54.4c-0.6,0-1.1-0.5-1.1-1.1c0-0.3,0.1-0.6,0.3-0.8l2.6-2.6l-2.6-2.6c-0.4-0.4-0.4-1.2,0-1.6
			c0.4-0.4,1.2-0.4,1.6,0l0,0l3.3,3.4c0.4,0.4,0.4,1.1,0,1.6c0,0,0,0,0,0l0,0l-3.3,3.4C64.6,54.3,64.3,54.4,64,54.4z"/>
		<path class="st2" d="M46,57.7c-0.6,0-1.1-0.5-1.1-1.1l0,0v-1.1c0-3.7,3-6.7,6.7-6.7h14.6c0.6,0,1.1,0.5,1.1,1.1l0,0
			c0,0.6-0.5,1.1-1.1,1.1c0,0,0,0,0,0H51.6c-2.5,0-4.5,2-4.5,4.5v1.1C47.2,57.2,46.7,57.7,46,57.7C46,57.7,46,57.7,46,57.7z"/>
		<path class="st2" d="M55,66.7c-0.3,0-0.6-0.1-0.8-0.3L50.8,63c-0.4-0.4-0.4-1.1,0-1.6c0,0,0,0,0,0l0,0l3.4-3.3
			c0.4-0.4,1.1-0.4,1.6,0c0,0,0,0,0,0c0.4,0.4,0.4,1.1,0,1.6l-2.6,2.6l2.6,2.6c0.4,0.4,0.4,1.1,0,1.6C55.6,66.6,55.3,66.7,55,66.7z"
			/>
		<path class="st2" d="M52.8,63.3c-0.6,0.1-1.2-0.4-1.2-1c-0.1-0.6,0.4-1.2,1-1.2c0.1,0,0.1,0,0.2,0h14.5c2.5,0,4.5-2,4.5-4.5v-1.1
			c0-0.6,0.5-1.1,1.1-1.1c0.6,0,1.1,0.5,1.1,1.1v1.1c0,3.7-3,6.7-6.7,6.7L52.8,63.3z"/>
		<circle class="st6" cx="197.2" cy="56.1" r="28.2"/>
		<path class="st2" d="M198.6,55.3l-1.5-1.5c-0.7-0.7-1.8-0.7-2.5,0c0,0,0,0,0,0l-10.1,9.4c-0.4,0.3-0.6,0.8-0.6,1.3
			c0,0.5,0.2,1,0.5,1.3l2.2,2.2l0,0c0.3,0.3,0.8,0.5,1.3,0.5h0.1c0.5,0,1-0.3,1.3-0.6l9.4-10.1C199.2,57.1,199.2,56,198.6,55.3
			L198.6,55.3z"/>
		<path class="st2" d="M210.3,52.4L210.3,52.4l-1.9-1.9c-0.2-0.2-0.5-0.3-0.9-0.3c-0.3,0-0.5,0.1-0.7,0.2c0,0,0,0,0-0.1
			c0.1-0.5,0-1-0.3-1.4c-0.4-0.6-0.9-1.1-1.4-1.6l0,0c-1.4-1.3-3-2.4-4.9-3.1c-1-0.4-2-0.6-3-0.6c-1.3,0-2.6,0.4-3.6,1.3
			c-0.3,0.3-0.6,0.6-0.8,0.9c-0.3,0.4-0.2,1,0.2,1.2c0.2,0.2,0.6,0.2,0.8,0.1c0.2-0.1,0.3-0.1,0.5-0.2c0.3-0.1,0.7-0.1,1-0.1
			c0.7,0.1,1.4,0.3,2,0.7c0.7,0.6,1,1.4,1,2.3c-0.2,0.7-0.6,1.4-1.1,1.9c-0.3,0.4-0.2,0.9,0.1,1.2l1.9,1.9c0.3,0.3,0.9,0.3,1.2,0
			c0.6-0.5,1.4-1.2,1.7-1.4c0.2-0.2,0.5-0.3,0.8-0.3c0.2,0,0.4,0,0.6,0.1l0,0l-0.1,0.1l0,0c-0.5,0.5-0.5,1.2,0,1.7c0,0,0,0,0,0l0,0
			l1.9,1.9c0.5,0.5,1.2,0.5,1.7,0l3.1-3.1l0,0C210.7,53.5,210.7,52.8,210.3,52.4z"/>
	</g>
</g>
</svg>
