<?xml version="1.0" encoding="utf-8"?>
<!-- Generator: Adobe Illustrator 24.0.1, SVG Export Plug-In . SVG Version: 6.00 Build 0)  -->
<svg version="1.1" id="Layer_1" xmlns="http://www.w3.org/2000/svg" xmlns:xlink="http://www.w3.org/1999/xlink" x="0px" y="0px"
	 viewBox="0 0 594.6 353.3" style="enable-background:new 0 0 594.6 353.3;" xml:space="preserve">
<style type="text/css">
	.st0{fill:#F3F3F3;}
	.st1{fill:#FFFFFF;}
	.st2{fill:#CCCCCC;}
	.st3{fill:#302E41;}
	.st4{fill:#F9B7B8;}
	.st5{fill:#FAAB54;}
	.st6{fill:#403E56;}
	.st7{fill:#A0626B;}
	.st8{fill:#72451B;}
	.st9{opacity:0.8;fill:#F15A5B;enable-background:new    ;}
	.st10{opacity:0.8;fill:#FFD353;enable-background:new    ;}
	.st11{opacity:0.8;fill:#8EC851;enable-background:new    ;}
</style>
<title>small</title>
<g id="Layer_2_1_">
	<g id="Layer_1-2">
		<path class="st0" d="M445.6,244.6H73.2c-6.6,0-12-5.4-12-12V8.8C61.2,3.9,65.1,0,70,0h378.7c4.9,0,8.9,4,8.9,8.9v223.6
			C457.6,239.2,452.2,244.5,445.6,244.6z"/>
		<path class="st1" d="M84.8,232.6H434c6.4,0,11.6-5.2,11.6-11.6V31c0-6.4-5.2-11.6-11.6-11.6H84.8c-6.4,0-11.6,5.2-11.6,11.6v190
			C73.2,227.4,78.4,232.6,84.8,232.6z"/>
		<path class="st2" d="M270.3,191.4h-31.3c-3.8,0-6.9-3.1-6.9-6.9v-31.2c0-3.8,3.1-6.9,6.9-6.9h31.3c3.8,0,6.9,3.1,6.9,6.9v31.2
			C277.2,188.3,274.1,191.4,270.3,191.4z M239.1,147.8c-3,0-5.4,2.4-5.5,5.4v31.2c0,3,2.4,5.4,5.5,5.4h31.2c3,0,5.4-2.4,5.4-5.4
			v-31.2c0-3-2.4-5.4-5.4-5.4H239.1z"/>
		<path class="st2" d="M264.1,182.7h-18.9c-1.2,0-2.2-1-2.2-2.2v-23.2c0-1.2,1-2.2,2.2-2.2h13.7c0.5,0,1,0.2,1.4,0.5l5.2,4.2
			c0.5,0.4,0.8,1,0.8,1.7v19.1C266.3,181.7,265.3,182.7,264.1,182.7C264.1,182.7,264.1,182.7,264.1,182.7z M245.3,156.5
			c-0.4,0-0.7,0.3-0.7,0.7l0,0v23.2c0,0.4,0.3,0.7,0.7,0.7h18.9c0.4,0,0.7-0.3,0.7-0.7v-19.1c0-0.2-0.1-0.4-0.3-0.6l-5.2-4.2
			c-0.1-0.1-0.3-0.2-0.5-0.2L245.3,156.5z"/>
		<path class="st2" d="M260.5,165.2h-11.6c-0.4,0-0.7-0.3-0.7-0.7c0-0.4,0.3-0.7,0.7-0.7l0,0h11.6c0.4,0,0.7,0.3,0.7,0.7
			C261.2,164.9,260.9,165.2,260.5,165.2z"/>
		<path class="st2" d="M260.5,169.6h-11.6c-0.4,0-0.7-0.3-0.7-0.7c0-0.4,0.3-0.7,0.7-0.7l0,0h11.6c0.4,0,0.7,0.3,0.7,0.7l0,0
			C261.2,169.3,260.9,169.6,260.5,169.6z"/>
		<path class="st2" d="M260.5,174h-11.6c-0.4,0-0.7-0.3-0.7-0.7l0,0c0-0.4,0.3-0.7,0.7-0.7h11.6c0.4,0,0.7,0.3,0.7,0.7
			C261.2,173.7,260.9,174,260.5,174L260.5,174z"/>
		<path class="st2" d="M344.3,191.4h-31.2c-3.8,0-6.9-3.1-6.9-6.9v-31.2c0-3.8,3.1-6.9,6.9-6.9h31.2c3.8,0,6.9,3.1,6.9,6.9v31.2
			C351.2,188.3,348.2,191.4,344.3,191.4L344.3,191.4z M313.1,147.8c-3,0-5.4,2.4-5.4,5.4v31.2c0,3,2.4,5.4,5.4,5.4h31.2
			c3,0,5.4-2.4,5.5-5.4v-31.2c0-3-2.4-5.4-5.5-5.4H313.1z"/>
		<path class="st2" d="M338.9,176.9h-20.3c-1.2,0-2.2-1-2.2-2.2v-11.6c0-1.2,1-2.2,2.2-2.2h20.3c1.2,0,2.2,1,2.2,2.2c0,0,0,0,0,0
			v11.6C341.1,175.9,340.1,176.9,338.9,176.9L338.9,176.9z M318.6,162.3c-0.4,0-0.7,0.3-0.7,0.7l0,0v11.6c0,0.4,0.3,0.7,0.7,0.7
			h20.3c0.4,0,0.7-0.3,0.7-0.7l0,0v-11.6c0-0.4-0.3-0.7-0.7-0.7H318.6z"/>
		<path class="st2" d="M328.8,170.8c-0.4,0-0.8-0.1-1.2-0.3l-10.9-6.8c-0.4-0.2-0.5-0.6-0.3-1c0.2-0.4,0.6-0.5,1-0.3
			c0,0,0.1,0.1,0.1,0.1l10.8,6.8c0.2,0.2,0.5,0.2,0.8,0l10.9-6.8c0.3-0.2,0.8-0.1,1,0.2c0.2,0.3,0.1,0.8-0.2,1c0,0,0,0,0,0
			l-10.9,6.8C329.6,170.7,329.2,170.8,328.8,170.8z"/>
		<path class="st2" d="M196.2,191.4H165c-3.8,0-6.9-3.1-6.9-6.9v-31.2c0-3.8,3.1-6.9,6.9-6.9h31.2c3.8,0,6.9,3.1,6.9,6.9v31.2
			C203.1,188.3,200,191.4,196.2,191.4z M165,147.8c-3,0-5.4,2.4-5.5,5.4v31.2c0,3,2.4,5.4,5.5,5.4h31.2c3,0,5.4-2.4,5.5-5.4v-31.2
			c0-3-2.4-5.4-5.5-5.4H165z"/>
		<path class="st2" d="M190.8,176.9h-20.3c-1.2,0-2.2-1-2.2-2.2c0,0,0,0,0,0v-11.6c0-1.2,1-2.2,2.2-2.2c0,0,0,0,0,0h20.3
			c1.2,0,2.2,1,2.2,2.2v11.6C193,175.9,192,176.8,190.8,176.9z M170.5,162.3c-0.4,0-0.7,0.3-0.7,0.7l0,0v11.6c0,0.4,0.3,0.7,0.7,0.7
			h20.3c0.4,0,0.7-0.3,0.7-0.7v-11.6c0-0.4-0.3-0.7-0.7-0.7l0,0H170.5z"/>
		<path class="st2" d="M187.6,176.9h-14.6c-0.8,0-1.4-0.6-1.5-1.4c0,0,0,0,0,0c0-0.3,0.1-0.5,0.2-0.7l4.4-7.6c0.4-0.7,1.3-0.9,2-0.5
			c0,0,0,0,0,0c0.2,0.1,0.4,0.3,0.5,0.5l2.9,4.9l1.6-2.9c0.4-0.7,1.3-0.9,2-0.5c0,0,0,0,0,0c0.2,0.1,0.4,0.3,0.5,0.5l3.2,5.6
			c0.4,0.7,0.2,1.6-0.5,2c0,0,0,0,0,0C188.1,176.8,187.8,176.9,187.6,176.9L187.6,176.9z M187.6,175.4L187.6,175.4l-3.2-5.6
			l-2.3,3.9c-0.1,0.2-0.4,0.4-0.6,0.4l0,0c-0.3,0-0.5-0.1-0.6-0.4l-3.5-6l-4.4,7.6L187.6,175.4z"/>
		<circle class="st2" cx="188.6" cy="165.2" r="1.5"/>
		<path class="st3" d="M569.6,341l-8.2-2.5c-1.3-0.4-2.2-1.5-2.3-2.8l-7.7-72.9c0-0.2-0.2-0.4-0.4-0.4c-0.2,0-0.4,0.2-0.4,0.4
			l-12.9,70.6c-0.3,1.8-2,2.9-3.8,2.6h-0.1l-10.5-2.2c-1.6-0.3-2.7-1.8-2.6-3.4l7.8-115.7l53.1-5.8l-7.9,129.1
			c-0.1,1.7-1.5,3.1-3.3,3.1C570.2,341.1,569.9,341.1,569.6,341z"/>
		<circle class="st4" cx="569.5" cy="96.2" r="17.8"/>
		<path class="st5" d="M528.5,215.4l11.5-72.5c2.4-15,16.5-25.2,31.5-22.8c1.1,0.2,2.3,0.4,3.4,0.8l0,0
			c13.6,3.9,21.9,17.5,19.3,31.4l-12,64.8L528.5,215.4z"/>
		<path class="st4" d="M574.4,228.4c3.4-2.2,4.3-6.8,2.1-10.1c-0.2-0.4-0.5-0.7-0.8-1l11.9-23.1l-13.4,1.4l-9.3,21.7
			c-2.8,3-2.6,7.6,0.4,10.4C567.8,230,571.6,230.3,574.4,228.4L574.4,228.4z"/>
		<path class="st4" d="M466.8,86.5c0.7,4,4.5,6.6,8.5,5.9c0,0,0,0,0.1,0c0.4-0.1,0.8-0.2,1.2-0.3l16.6,20l3.9-13l-16.4-17
			c-1.7-3.7-6-5.3-9.7-3.6C467.9,79.8,466.1,83.1,466.8,86.5L466.8,86.5z"/>
		<path class="st5" d="M479.8,94.7c0.3-0.6,0.9-1,1.5-1.3l5.7-2.6c1.3-0.6,2.7-0.3,3.7,0.7l16.3,16.8l39.8,15.4
			c5.1,2.8,6.9,9.2,4.1,14.3c-2.8,5.1-9.2,6.9-14.3,4.1c-0.2-0.1-0.4-0.2-0.6-0.3l0,0l-25.6-8.4c-7.8-2.6-14.3-7.8-18.5-14.9
			l-12.1-20.6c-0.5-0.8-0.6-1.8-0.3-2.7C479.5,95.2,479.6,94.9,479.8,94.7z"/>
		<path class="st3" d="M567.5,99.5c-2.3,0.3-4.5-1.2-5.1-3.4c-0.6-2.5-2.5-4.6-5-5.3c-3.3-0.8-7.3,0.8-9.7-1.7
			c-1-1.1-1.5-2.7-1.2-4.2c0.5-2.4,2.2-4.2,4-5.7c3.9-3.1,8.7-4.8,13.7-5.1c2.6-0.1,5.2,0,7.7,0.4c2.7,0.2,5.3,0.7,7.9,1.4
			c5.9,2.2,10.3,7.4,11.6,13.6c1.2,6.2-0.4,12.6-4.4,17.5c-2.3,2.9-5.4,5.2-8.8,6.7c-0.8,0.4-1.8,0.4-2.6,0.1
			c-2.2-0.9-1.8-3.5-0.8-5.3s2.7-3.7,1.8-6c-0.4-1.1-1.2-1.9-2.3-2.4C572.2,99,569.8,99.3,567.5,99.5L567.5,99.5z"/>
		<path class="st1" d="M460.8,109.6H240c-6.6,0-12-5.4-12-12V50.4c0-6.6,5.4-12,12-12h220.8c6.6,0,12,5.4,12,12v47.2
			C472.8,104.2,467.4,109.6,460.8,109.6z"/>
		<path class="st6" d="M460.8,110H240c-6.8,0-12.3-5.5-12.4-12.3V50.4c0-6.8,5.5-12.3,12.4-12.3h220.8c6.8,0,12.3,5.5,12.3,12.3
			v47.2C473.2,104.4,467.6,110,460.8,110C460.8,110,460.8,110,460.8,110z M240,39.5c-6,0-10.9,4.9-10.9,10.9v47.2
			c0,6,4.9,10.9,10.9,10.9h220.8c6,0,10.9-4.9,10.9-10.9V50.4c0-6-4.9-10.9-10.9-10.9H240z"/>
		<path class="st0" d="M433.9,98h-167c-6.6,0-12-0.8-12-1.8v-3.8c0-1,5.4-1.8,12-1.8h167c6.6,0,12,0.8,12,1.8v3.8
			C445.9,97.2,440.6,98,433.9,98z"/>
		<path class="st0" d="M433.9,85.3h-167c-6.6,0-12-0.8-12-1.8v-3.8c0-1,5.4-1.8,12-1.8h167c6.6,0,12,0.8,12,1.8v3.8
			C445.9,84.5,440.6,85.3,433.9,85.3z"/>
		<path class="st0" d="M433.9,70.8h-167c-6.6,0-12-0.8-12-1.8v-3.8c0-1,5.4-1.8,12-1.8h167c6.6,0,12,0.8,12,1.8v3.8
			C445.9,69.9,440.6,70.8,433.9,70.8z"/>
		<path class="st0" d="M343.9,56.2h-83c-3.3,0-6-0.8-6-1.8v-3.8c0-1,2.7-1.8,6-1.8h83c3.3,0,6,0.8,6,1.8v3.8
			C349.8,55.4,347.2,56.2,343.9,56.2z"/>
		<circle class="st7" cx="51" cy="122.5" r="16.8"/>
		<path class="st7" d="M92.3,110.9c0.2,0.1,0.3,0.3,0.5,0.4c3,2.9,3.2,7.6,0.3,10.6c0,0,0,0,0,0c-0.2,0.2-0.4,0.4-0.6,0.6
			c-0.2,0.2-0.4,0.3-0.6,0.4l1.1,38.4c0.1,2.6-1.6,4.9-4,5.7H89l-31.2,3.3c-3.5,0.5-6.8-1.9-7.4-5.4c-0.5-3.5,1.9-6.8,5.4-7.4
			c0.2,0,0.3,0,0.5-0.1h0.1l22.3-2l3.9-33.3c-0.3-0.2-0.5-0.5-0.7-0.7c-2.7-3.2-2.3-7.9,0.9-10.6C85.5,108.7,89.5,108.6,92.3,110.9z
			"/>
		<path class="st3" d="M89.1,345.2h-9.4c-1.6,0-2.9-1.2-3.1-2.8l-9.5-89.1c0-0.6-0.5-1-1.1-0.9c0,0,0,0-0.1,0
			c-0.4,0-0.7,0.3-0.8,0.6l-17.1,37.9l-30.3,49.4c-0.8,1.3-2.5,1.8-3.9,1.2l-12.1-5.3c-1.6-0.7-2.3-2.5-1.6-4.1
			c0.1-0.1,0.1-0.2,0.2-0.3l27.8-46.6l8.5-39.3c-2.7-17,8.8-42.4,8.9-42.6l0.1-0.1l31.7-12.4l0.2,0.2c12.5,41,20.1,85.2,14.5,151.5
			C92.1,344,90.7,345.2,89.1,345.2z"/>
		<path class="st6" d="M44.5,207.3l-0.1-0.3c-0.1-0.1-7.1-15-12.6-30.9c-2.1-6.2-1.5-13,1.6-18.8c3.2-5.8,8.7-10,15.1-11.6l0,0
			c11.4-2.7,23.2,3.3,27.5,14.2c4.3,10.8,2.9,22.3,1.6,31.3v0.2l-0.2,0.1L44.5,207.3z"/>
		<path class="st3" d="M71.4,113H44.7v-11.7c5.9-2.3,11.6-4.3,15.1,0C66.2,101.3,71.4,106.5,71.4,113C71.4,113,71.4,113,71.4,113z"
			/>
		<path class="st3" d="M43.2,99.2c-16,0-20.4,20-20.4,31.3c0,6.3,2.9,8.6,7.3,9.3l1.6-8.4l3.7,8.8c1.3,0,2.6,0,3.9,0l1.2-2.6
			l2.8,2.5c11.2,0,20.3,1.6,20.3-9.6S59.8,99.2,43.2,99.2z"/>
		<path class="st1" d="M120.3,126.7H89.1c-3.8,0-6.9-3.1-6.9-6.9V88.5c0-3.8,3.1-6.9,6.9-6.9h31.2c3.8,0,6.9,3.1,6.9,6.9v31.2
			C127.2,123.6,124.2,126.7,120.3,126.7z"/>
		<path class="st6" d="M120.3,126.7H89.1c-3.8,0-6.9-3.1-6.9-6.9V88.5c0-3.8,3.1-6.9,6.9-6.9h31.2c3.8,0,6.9,3.1,6.9,6.9v31.2
			C127.2,123.6,124.2,126.7,120.3,126.7z M89.1,83.1c-3,0-5.4,2.4-5.4,5.4v31.2c0,3,2.4,5.4,5.4,5.4h31.2c3,0,5.4-2.4,5.4-5.4V88.5
			c0-3-2.4-5.4-5.4-5.5H89.1z"/>
		<path class="st5" d="M114.9,114H94.6c-1.2,0-2.2-1-2.2-2.2V96.5c0-1.2,1-2.2,2.2-2.2h5.7c0.8,0,1.5,0.4,1.9,1l1.6,2.7h11.2
			c1.2,0,2.2,1,2.2,2.2v11.6C117.1,113,116.1,114,114.9,114C114.9,114,114.9,114,114.9,114z"/>
		<path class="st7" d="M114.2,121.7c0.1,0.2,0.2,0.4,0.3,0.6c1.7,3.8,0,8.3-3.8,9.9c0,0,0,0,0,0c-0.3,0.1-0.5,0.2-0.8,0.3
			c-0.2,0.1-0.5,0.1-0.7,0.2l-13.9,35.9c-0.9,2.4-3.4,3.9-5.9,3.7h-0.1l-30.1-9c-3.4-1-5.4-4.5-4.5-8s4.5-5.4,8-4.5
			c0.1,0,0.2,0,0.3,0.1h0.1l21.3,6.8l16.5-29.2c-0.1-0.3-0.3-0.6-0.4-0.9c-1.3-4,0.9-8.2,4.9-9.5C108.8,117,112.5,118.5,114.2,121.7
			L114.2,121.7z"/>
		<path class="st8" d="M457.6,16.3v12.4H61.2V16.3c0-8.9,7.2-16.1,16.1-16.1c0,0,0,0,0,0h364.1C450.4,0.2,457.6,7.4,457.6,16.3
			C457.6,16.3,457.6,16.3,457.6,16.3L457.6,16.3z"/>
		<circle class="st9" cx="80.4" cy="14.4" r="5.7"/>
		<circle class="st10" cx="97" cy="14.4" r="5.7"/>
		<circle class="st11" cx="113.6" cy="14.4" r="5.7"/>
	</g>
</g>
</svg>
